<svg width="170" height="41" viewBox="0 0 170 41" fill="none" xmlns="http://www.w3.org/2000/svg">
<path fill-rule="evenodd" clip-rule="evenodd" d="M6.3118 5.31657C5.97001 4.61857 5.60534 3.94182 5.22054 3.29406C4.52388 2.11863 3.64308 0.882945 2.90986 0C4.13358 1.6223 5.28496 3.39098 6.22958 5.34225C5.69135 5.50282 5.16756 5.7246 4.6676 6.02344C-0.0684872 8.83877 -1.10384 14.506 2.22292 18.8694C2.91657 19.774 3.71937 20.5475 4.54702 21.2516C5.00251 21.6371 5.46695 22 5.93552 22.3473C5.75 22.6192 5.55803 22.8871 5.3603 23.1482C5.17057 23.3994 4.97663 23.6463 4.78104 23.8892C3.96251 24.9029 3.10312 25.8688 2.32811 26.8904C1.94323 27.4023 1.57073 27.9239 1.25465 28.4765C1.08479 28.7469 0.951305 29.0358 0.803717 29.3181C0.736201 29.4614 0.678316 29.6099 0.615014 29.7559C0.549047 29.9007 0.49151 30.049 0.444808 30.2015C0.21663 30.7987 0.0987976 31.427 0.0351521 32.062C-0.0300415 32.699 -0.00105608 33.3463 0.0932081 33.9825C0.130535 34.3046 0.213101 34.6155 0.282165 34.9321C0.377633 35.2401 0.461835 35.5522 0.587491 35.8511C0.821776 36.4534 1.11825 37.036 1.48954 37.5677C2.21303 38.6443 3.21235 39.544 4.38076 40.1285C6.71802 41.3012 9.58559 41.2854 11.9424 40.1113C13.1215 39.5269 14.1607 38.6259 14.9155 37.546C15.1174 37.2837 15.2733 36.9938 15.4472 36.7138C15.5914 36.419 15.7557 36.1321 15.8721 35.8263C16.1362 35.2245 16.3151 34.5919 16.4452 33.9538C16.6678 32.7775 16.6934 31.5385 16.4277 30.3286C16.1718 29.108 15.6489 27.9695 14.9643 26.9706C14.2837 25.9662 13.4637 25.0945 12.5989 24.3283C11.7336 23.5604 10.8262 22.8764 9.92231 22.2385C9.21223 21.7323 8.50439 21.2572 7.83095 20.7783C7.90922 20.6013 7.98542 20.424 8.05475 20.2457C8.99472 17.8574 9.24543 15.3146 9.04314 12.9203C9.2149 15.1665 8.98242 17.4989 8.19657 19.6969C8.07134 20.0478 7.92651 20.393 7.77186 20.7361C7.60879 20.619 7.44461 20.502 7.28566 20.3833C7.2756 20.3766 7.26554 20.3684 7.25591 20.3602C7.69145 19.3842 8.00735 18.3662 8.20947 17.3375C8.71855 14.7567 8.52692 12.1548 7.95085 9.77735C7.78829 9.10757 7.59031 8.45842 7.36634 7.82547C7.38724 7.82199 7.40745 7.81615 7.42835 7.81267L7.59495 7.77819L7.76361 7.76748L8.0993 7.74162C8.32498 7.735 8.55926 7.75529 8.78907 7.76443C9.2487 7.82991 9.71271 7.91237 10.1594 8.08765C11.0555 8.4141 11.918 8.93908 12.6361 9.64143C13.357 10.3367 13.9525 11.1753 14.3636 12.0819C14.4618 12.2819 14.525 12.5033 14.6171 12.7256C14.6855 12.9543 14.7502 13.1927 14.811 13.4379C14.9005 13.9312 14.9801 14.4694 14.9588 15.0324C14.9412 16.1549 14.6585 17.3547 14.1875 18.4102C13.7299 19.4778 13.0838 20.3797 12.5066 21.0969C11.9255 21.8179 11.383 22.3264 11.1542 22.7665C11.7559 22.4896 12.3356 22.0895 12.8576 21.6334C13.3748 21.1715 13.8244 20.6524 14.2475 20.1704C14.1388 20.3914 14.0138 20.6318 13.8721 20.8759C13.7154 21.1053 13.5658 21.3681 13.3617 21.5831C13.5764 21.4017 13.7724 21.1755 13.9797 20.9693C14.1443 20.7734 14.3061 20.5777 14.4319 20.3781C14.2291 20.7293 14.0261 21.0772 13.9859 21.2591C14.4902 20.7726 14.943 19.8761 15.1341 19.3724C15.1686 19.3028 15.2211 19.1603 15.2752 18.9808C15.3293 18.8001 15.411 18.5935 15.4613 18.3722C15.5875 17.9402 15.672 17.4936 15.7569 17.3109C15.6949 17.8368 15.5846 18.4425 15.399 19.006C15.2315 19.5808 15.0062 20.1156 14.84 20.5601C14.9529 20.4031 15.0644 20.2481 15.1746 20.0927C15.2776 19.9317 15.3737 19.7699 15.4823 19.6156C15.3442 20.0748 14.8406 20.849 14.7745 21.1114C15.3848 20.3347 15.7816 19.5501 16.1947 18.6264C16.5305 17.8758 16.7627 17.1583 16.8401 16.3696C16.8297 16.4875 16.8201 16.6114 16.8104 16.7376C16.7937 16.8628 16.77 16.9909 16.7495 17.122C16.7272 17.2512 16.7054 17.384 16.6833 17.5146C16.6526 17.6456 16.6224 17.7742 16.5933 17.9024C16.5627 18.0305 16.535 18.156 16.5057 18.279C16.4738 18.3988 16.4418 18.516 16.4108 18.6274C16.3576 18.8544 16.3092 19.0572 16.2688 19.2265C16.3961 19.04 16.4857 18.8262 16.574 18.6099C16.6662 18.3973 16.7332 18.1714 16.795 17.9471C16.7947 18.0074 16.8024 18.045 16.8194 18.0642C16.8801 17.8665 17.0049 17.6197 17.0448 17.4055C17.0585 17.4068 17.0751 17.4011 17.0887 17.3976C17.0849 17.3949 17.0805 17.3924 17.0763 17.3909L17.153 17.2332C19.0171 10.8251 13.1635 3.37156 6.3118 5.31657ZM15.2018 35.4065C15.6263 34.4838 15.8871 33.4766 15.9684 32.4412C16.0501 31.4084 15.9631 30.3358 15.6463 29.3119C16.5137 31.6619 16.2407 34.4004 14.9844 36.6077C14.6749 37.1644 14.2846 37.6721 13.8602 38.1462C13.4259 38.6131 12.9264 39.0169 12.3956 39.3663C11.8576 39.7067 11.2764 39.9716 10.679 40.18C10.0771 40.3785 9.45228 40.5004 8.82408 40.5661C7.56407 40.6766 6.27714 40.5101 5.1034 40.045C3.92931 39.5829 2.8826 38.8148 2.10045 37.8253C0.519029 35.8654 -0.110459 33.1261 0.550938 30.7409C0.893247 29.544 1.5021 28.4339 2.24658 27.4013C2.97996 26.3631 3.83531 25.3889 4.65745 24.3692C4.92425 24.0362 5.19001 23.7011 5.44941 23.3556C5.6689 23.0634 5.88409 22.7654 6.08896 22.4592L6.61369 22.8377C6.33468 23.2592 6.04432 23.6623 5.74717 24.0535C5.38215 24.5369 5.00733 25.0009 4.63948 25.4536C3.29922 27.1048 2.01246 28.6707 1.40353 30.4093C1.34178 30.6282 1.24665 30.8447 1.20726 31.0615L1.12968 31.3875L1.07868 31.7195C1.00661 32.1631 0.998263 32.619 1.01641 33.0743C1.07472 33.9849 1.28269 34.9018 1.66069 35.7465C2.04162 36.5866 2.55689 37.3732 3.21296 38.0124C3.86885 38.6473 4.64532 39.1576 5.51597 39.4848C6.38689 39.8106 7.32876 39.982 8.27837 39.9779C9.22617 39.9654 10.1804 39.7899 11.0795 39.4446C11.9744 39.0882 12.8032 38.555 13.5079 37.8635C14.2155 37.1741 14.7786 36.3262 15.2018 35.4065ZM9.60597 24.9458C11.2036 26.1306 12.6432 27.4622 13.4951 29.0465C13.5922 29.2479 13.6961 29.4447 13.7808 29.6493C13.8532 29.8567 13.9543 30.059 14.0032 30.2654L14.0929 30.5735C14.1186 30.6782 14.1346 30.7858 14.1562 30.8906C14.2063 31.0985 14.2208 31.3157 14.2475 31.5295C14.3298 32.3888 14.2091 33.2712 13.9555 34.0971C13.6524 35.0563 13.1419 35.9707 12.4683 36.6996C12.1257 37.058 11.7603 37.3827 11.348 37.6416C10.9327 37.9006 10.4864 38.1153 10.0151 38.2798C9.06524 38.5898 8.02954 38.6983 7.04519 38.5671C6.55254 38.5123 6.0764 38.3852 5.63002 38.2183C5.40142 38.1435 5.1956 38.0316 4.98024 37.9369C4.78259 37.8163 4.5742 37.7145 4.39126 37.5739C4.10606 37.392 3.8237 37.125 3.52783 36.823C3.24951 36.5021 2.96912 36.1309 2.72873 35.7059C2.49359 35.2745 2.2925 34.801 2.14311 34.3005C1.99672 33.8003 1.91898 33.2748 1.89429 32.7604C1.86763 32.2433 1.90676 31.7349 2.01126 31.2653C2.02812 31.1473 2.06037 31.0261 2.09761 30.9057C2.13373 30.7842 2.15885 30.6646 2.19807 30.5461C2.2882 30.3097 2.35366 30.0739 2.46108 29.8459C2.84149 28.933 3.33801 28.0958 3.69589 27.4201C3.12437 28.2503 2.61323 29.0699 2.24348 29.8911C2.14543 30.0968 2.07895 30.3043 1.99062 30.5084C1.93127 30.7173 1.85163 30.9254 1.80364 31.1296C1.75797 31.3328 1.70258 31.5346 1.67987 31.7453C1.63988 31.9509 1.63059 32.1645 1.61468 32.378C1.5666 33.2318 1.70301 34.1153 1.97032 34.9509C2.2569 35.7807 2.67653 36.5666 3.22465 37.2192C1.92241 35.8803 1.17346 33.8646 1.32294 31.9496C1.41041 31.0092 1.69759 30.0633 2.19394 29.1447C2.67936 28.2252 3.32012 27.3287 4.02891 26.4223C4.59725 25.6888 5.2042 24.9504 5.7918 24.1604C5.93457 23.9705 6.07571 23.7768 6.21384 23.58C6.37244 23.3536 6.52957 23.1215 6.68206 22.8865C6.82389 22.9859 6.96606 23.0866 7.10789 23.1845C7.96383 23.7743 8.8055 24.3475 9.60597 24.9458ZM8.33298 13.0247C8.48573 15.4268 8.15546 17.9618 7.11967 20.2569C6.34887 19.6764 5.61472 19.0712 4.95968 18.4251C2.12316 15.6354 1.18326 11.8369 4.86911 8.95902C5.59811 8.40452 6.42972 8.01843 7.27053 7.84576C7.83714 9.48156 8.22074 11.2207 8.33298 13.0247Z" fill="url(#paint0_linear)"/>
<path d="M30.3919 28.8143C30.4729 28.8143 30.5365 28.8377 30.5829 28.8845C30.6292 28.9315 30.6523 28.9959 30.6523 29.0779V33.3058V33.3234C30.6465 33.7746 30.5365 34.1848 30.3224 34.5539C30.1083 34.9231 29.8174 35.2117 29.4499 35.4197C29.0823 35.6277 28.6758 35.7318 28.2301 35.7318C27.7729 35.7318 27.359 35.6249 26.9886 35.4109C26.618 35.1971 26.3272 34.9026 26.1159 34.5275C25.9047 34.1525 25.7991 33.7336 25.7991 33.2706C25.7991 32.8136 25.9047 32.3975 26.1159 32.0225C26.3272 31.6474 26.618 31.353 26.9886 31.1391C27.359 30.9252 27.7729 30.8183 28.2301 30.8183C28.641 30.8183 29.0129 30.9076 29.3457 31.0864C29.6785 31.2651 29.9404 31.5098 30.1314 31.8204V29.0779C30.1314 28.9959 30.156 28.9315 30.2052 28.8845C30.2544 28.8377 30.3166 28.8143 30.3919 28.8143ZM28.2301 35.2396C28.5889 35.2396 28.9131 35.1531 29.2025 34.9803C29.4918 34.8074 29.719 34.5715 29.884 34.2727C30.049 33.9738 30.1314 33.6398 30.1314 33.2706C30.1314 32.9015 30.049 32.5675 29.884 32.2686C29.719 31.9698 29.4918 31.7354 29.2025 31.5654C28.9131 31.3955 28.5889 31.3105 28.2301 31.3105C27.8712 31.3105 27.5471 31.3955 27.2577 31.5654C26.9683 31.7354 26.7396 31.9698 26.5718 32.2686C26.4039 32.5675 26.3199 32.9015 26.3199 33.2706C26.3199 33.6398 26.4039 33.9738 26.5718 34.2727C26.7396 34.5715 26.9683 34.8074 27.2577 34.9803C27.5471 35.1531 27.8712 35.2396 28.2301 35.2396Z" fill="#7F43D6"/>
<path d="M34.1858 30.8271C34.6083 30.8271 34.986 30.9282 35.3188 31.1303C35.6516 31.3325 35.9106 31.6123 36.0958 31.9698C36.281 32.3272 36.3736 32.7345 36.3736 33.1915C36.3736 33.2677 36.3505 33.3277 36.3042 33.3717C36.2579 33.4157 36.1972 33.4376 36.1219 33.4376H32.4841C32.5015 33.7834 32.5912 34.0925 32.7533 34.365C32.9154 34.6374 33.1324 34.8499 33.4044 35.0022C33.6765 35.1546 33.9803 35.2308 34.316 35.2308C34.5418 35.2308 34.7689 35.1912 34.9976 35.1121C35.2262 35.033 35.4071 34.929 35.5402 34.8001C35.598 34.7531 35.6588 34.7297 35.7225 34.7297C35.7862 34.7297 35.8383 34.7473 35.8788 34.7825C35.9425 34.8352 35.9743 34.8967 35.9743 34.9671C35.9743 35.0256 35.9483 35.0813 35.8961 35.134C35.711 35.304 35.4693 35.4446 35.1712 35.556C34.8732 35.6673 34.5881 35.723 34.316 35.723C33.8588 35.723 33.4522 35.6189 33.0963 35.4109C32.7403 35.2029 32.461 34.9128 32.2585 34.5408C32.0558 34.1686 31.9546 33.7482 31.9546 33.2794C31.9546 32.8047 32.0486 32.3814 32.2367 32.0093C32.4248 31.6372 32.6881 31.3471 33.0268 31.1391C33.3654 30.9311 33.7517 30.8271 34.1858 30.8271ZM34.1858 31.3193C33.7343 31.3193 33.3538 31.4716 33.0441 31.7764C32.7345 32.0811 32.5507 32.4825 32.4928 32.9806H35.8701C35.8296 32.4825 35.6559 32.0811 35.3492 31.7764C35.0424 31.4716 34.6546 31.3193 34.1858 31.3193Z" fill="#7F43D6"/>
<path d="M39.4298 35.7318C38.9842 35.7318 38.5819 35.6249 38.223 35.4109C37.8642 35.1971 37.582 34.9026 37.3765 34.5275C37.1711 34.1525 37.0684 33.7365 37.0684 33.2794C37.0684 32.8165 37.1638 32.399 37.3548 32.0269C37.5459 31.6547 37.8121 31.3618 38.1536 31.1479C38.495 30.934 38.8771 30.8271 39.2996 30.8271C39.67 30.8271 40.0086 30.9003 40.3154 31.0469C40.6221 31.1933 40.8884 31.4101 41.1141 31.6972C41.1547 31.7558 41.1749 31.8056 41.1749 31.8467C41.1749 31.9288 41.1344 31.9932 41.0533 32.0401C41.0128 32.0752 40.9665 32.0928 40.9144 32.0928C40.8334 32.0928 40.7668 32.0576 40.7147 31.9874C40.3443 31.542 39.8726 31.3193 39.2996 31.3193C38.9639 31.3193 38.6658 31.4028 38.4053 31.5698C38.1449 31.7369 37.9437 31.9698 37.8019 32.2686C37.6602 32.5675 37.5892 32.9044 37.5892 33.2794C37.5892 33.6486 37.6674 33.9826 37.8237 34.2815C37.98 34.5803 38.197 34.8147 38.4748 34.9846C38.7526 35.1546 39.071 35.2396 39.4298 35.2396C39.9391 35.2396 40.3472 35.096 40.654 34.8089C40.706 34.7561 40.7669 34.7297 40.8363 34.7297C40.9 34.7297 40.952 34.7503 40.9925 34.7913C41.0504 34.844 41.0794 34.9085 41.0794 34.9846C41.0794 35.0491 41.0563 35.1018 41.0099 35.1428C40.8074 35.3304 40.5701 35.4753 40.298 35.5779C40.026 35.6805 39.7366 35.7318 39.4298 35.7318Z" fill="#7F43D6"/>
<path d="M44.6477 35.7318C44.1905 35.7318 43.7766 35.6249 43.4062 35.4109C43.0358 35.1971 42.7449 34.9026 42.5336 34.5275C42.3224 34.1525 42.2168 33.7365 42.2168 33.2794C42.2168 32.8165 42.3224 32.3975 42.5336 32.0225C42.7449 31.6474 43.0358 31.353 43.4062 31.1391C43.7766 30.9252 44.1905 30.8183 44.6477 30.8183C45.0992 30.8183 45.5101 30.9252 45.8805 31.1391C46.251 31.353 46.5418 31.6474 46.7531 32.0225C46.9643 32.3975 47.0699 32.8165 47.0699 33.2794C47.0699 33.7365 46.9643 34.1525 46.7531 34.5275C46.5418 34.9026 46.251 35.1971 45.8805 35.4109C45.5101 35.6249 45.0992 35.7318 44.6477 35.7318ZM44.6477 35.2396C45.0065 35.2396 45.3307 35.1546 45.6201 34.9846C45.9094 34.8147 46.1367 34.5803 46.3016 34.2815C46.4666 33.9826 46.5491 33.6486 46.5491 33.2794C46.5491 32.9103 46.4666 32.5763 46.3016 32.2774C46.1367 31.9786 45.9094 31.7427 45.6201 31.5698C45.3307 31.3969 45.0065 31.3105 44.6477 31.3105C44.2889 31.3105 43.9647 31.3969 43.6753 31.5698C43.3859 31.7427 43.1573 31.9786 42.9895 32.2774C42.8216 32.5763 42.7377 32.9103 42.7377 33.2794C42.7377 33.6486 42.8216 33.9826 42.9895 34.2815C43.1573 34.5803 43.3859 34.8147 43.6753 34.9846C43.9647 35.1546 44.2889 35.2396 44.6477 35.2396Z" fill="#7F43D6"/>
<path d="M50.3864 30.8183C50.8262 30.8183 51.0462 30.915 51.0462 31.1083C51.0462 31.1377 51.0433 31.1611 51.0375 31.1787C51.0202 31.2431 50.9926 31.2885 50.955 31.3149C50.9174 31.3413 50.8668 31.3545 50.8031 31.3545C50.751 31.3545 50.683 31.3486 50.5991 31.3369C50.5151 31.3252 50.4443 31.3193 50.3864 31.3193C50.097 31.3193 49.8393 31.3808 49.6136 31.5039C49.3878 31.627 49.2113 31.7969 49.084 32.0137C48.9567 32.2305 48.893 32.4737 48.893 32.7433V35.4154C48.893 35.4916 48.8698 35.5545 48.8235 35.6043C48.7773 35.6541 48.7135 35.679 48.6325 35.679C48.5572 35.679 48.4951 35.6541 48.4459 35.6043C48.3967 35.5545 48.3721 35.4916 48.3721 35.4154V31.1347C48.3721 31.0527 48.3967 30.9883 48.4459 30.9413C48.4951 30.8945 48.5572 30.8711 48.6325 30.8711C48.7135 30.8711 48.7773 30.8945 48.8235 30.9413C48.8698 30.9883 48.893 31.0527 48.893 31.1347V31.6796C49.0608 31.4101 49.275 31.1992 49.5354 31.0469C49.7959 30.8945 50.0796 30.8183 50.3864 30.8183Z" fill="#7F43D6"/>
<path d="M53.8245 30.8183C54.2759 30.8183 54.6869 30.9252 55.0573 31.1391C55.4277 31.353 55.7186 31.6474 55.9298 32.0225C56.1411 32.3975 56.2467 32.8165 56.2467 33.2794V35.4154C56.2467 35.4916 56.2236 35.5545 56.1773 35.6043C56.1309 35.6541 56.0673 35.679 55.9863 35.679C55.911 35.679 55.8488 35.6541 55.7996 35.6043C55.7504 35.5545 55.7258 35.4916 55.7258 35.4154V34.7297C55.5348 35.0403 55.2729 35.2849 54.9401 35.4637C54.6073 35.6424 54.2354 35.7318 53.8245 35.7318C53.3672 35.7318 52.9534 35.6249 52.5829 35.4109C52.2125 35.1971 51.9216 34.9026 51.7104 34.5275C51.4992 34.1525 51.3936 33.7365 51.3936 33.2794C51.3936 32.8165 51.4992 32.3975 51.7104 32.0225C51.9216 31.6474 52.2125 31.353 52.5829 31.1391C52.9534 30.9252 53.3672 30.8183 53.8245 30.8183ZM53.8245 35.2396C54.1833 35.2396 54.5074 35.1546 54.7969 34.9846C55.0862 34.8147 55.3134 34.5803 55.4784 34.2815C55.6434 33.9826 55.7258 33.6486 55.7258 33.2794C55.7258 32.9103 55.6434 32.5763 55.4784 32.2774C55.3134 31.9786 55.0862 31.7427 54.7969 31.5698C54.5074 31.3969 54.1833 31.3105 53.8245 31.3105C53.4656 31.3105 53.1415 31.3969 52.8521 31.5698C52.5626 31.7427 52.334 31.9786 52.1662 32.2774C51.9984 32.5763 51.9144 32.9103 51.9144 33.2794C51.9144 33.6486 51.9984 33.9826 52.1662 34.2815C52.334 34.5803 52.5626 34.8147 52.8521 34.9846C53.1415 35.1546 53.4656 35.2396 53.8245 35.2396Z" fill="#7F43D6"/>
<path d="M59.6936 35.1427C59.7746 35.1427 59.8397 35.1676 59.8889 35.2174C59.9381 35.2672 59.9627 35.3332 59.9627 35.4152C59.9627 35.4914 59.9381 35.5544 59.8889 35.6042C59.8397 35.654 59.7746 35.6789 59.6936 35.6789H59.4938C59.1755 35.6789 58.892 35.6056 58.6431 35.4591C58.3942 35.3126 58.2003 35.1119 58.0614 34.8571C57.9225 34.6021 57.853 34.3135 57.853 33.9913V31.5213H57.1758C57.1064 31.5213 57.0499 31.4993 57.0065 31.4554C56.9631 31.4115 56.9414 31.3544 56.9414 31.284C56.9414 31.2136 56.9631 31.1565 57.0065 31.1126C57.0499 31.0687 57.1064 31.0467 57.1758 31.0467H57.853V29.614C57.853 29.5319 57.8776 29.466 57.9268 29.4161C57.976 29.3663 58.0382 29.3414 58.1134 29.3414C58.1944 29.3414 58.2596 29.3663 58.3088 29.4161C58.358 29.466 58.3826 29.5319 58.3826 29.614V31.0467H59.5286C59.5981 31.0467 59.6545 31.0687 59.6979 31.1126C59.7413 31.1565 59.763 31.2136 59.763 31.284C59.763 31.3544 59.7413 31.4115 59.6979 31.4554C59.6545 31.4993 59.5981 31.5213 59.5286 31.5213H58.3826V33.9913C58.3826 34.3311 58.4868 34.608 58.6952 34.8219C58.9035 35.0357 59.1726 35.1427 59.5025 35.1427H59.6936Z" fill="#7F43D6"/>
<path d="M61.4818 35.679C61.4065 35.679 61.3443 35.6541 61.2951 35.6043C61.2459 35.5545 61.2213 35.4915 61.2213 35.4153V31.1347C61.2213 31.0527 61.2459 30.9883 61.2951 30.9413C61.3443 30.8945 61.4065 30.871 61.4818 30.871C61.5628 30.871 61.6265 30.8945 61.6728 30.9413C61.719 30.9883 61.7422 31.0527 61.7422 31.1347V35.4153C61.7422 35.4915 61.719 35.5545 61.6728 35.6043C61.6265 35.6541 61.5628 35.679 61.4818 35.679ZM61.4731 29.8602C61.3573 29.8602 61.2618 29.8207 61.1866 29.7415C61.1113 29.6624 61.0737 29.5643 61.0737 29.4471C61.0737 29.3181 61.1142 29.2185 61.1953 29.1483C61.2763 29.0779 61.3718 29.0427 61.4818 29.0427C61.5918 29.0427 61.6858 29.0779 61.7639 29.1483C61.842 29.2185 61.8812 29.3181 61.8812 29.4471C61.8812 29.5643 61.842 29.6624 61.7639 29.7415C61.6858 29.8207 61.5888 29.8602 61.4731 29.8602Z" fill="#7F43D6"/>
<path d="M65.6489 35.7318C65.1917 35.7318 64.7778 35.6249 64.4074 35.4109C64.037 35.1971 63.7461 34.9026 63.5349 34.5275C63.3236 34.1525 63.218 33.7365 63.218 33.2794C63.218 32.8165 63.3236 32.3975 63.5349 32.0225C63.7461 31.6474 64.037 31.353 64.4074 31.1391C64.7778 30.9252 65.1917 30.8183 65.6489 30.8183C66.1004 30.8183 66.5113 30.9252 66.8818 31.1391C67.2522 31.353 67.5431 31.6474 67.7543 32.0225C67.9655 32.3975 68.0712 32.8165 68.0712 33.2794C68.0712 33.7365 67.9655 34.1525 67.7543 34.5275C67.5431 34.9026 67.2522 35.1971 66.8818 35.4109C66.5113 35.6249 66.1004 35.7318 65.6489 35.7318ZM65.6489 35.2396C66.0078 35.2396 66.3319 35.1546 66.6213 34.9846C66.9107 34.8147 67.1379 34.5803 67.3028 34.2815C67.4678 33.9826 67.5503 33.6486 67.5503 33.2794C67.5503 32.9103 67.4678 32.5763 67.3028 32.2774C67.1379 31.9786 66.9107 31.7427 66.6213 31.5698C66.3319 31.3969 66.0078 31.3105 65.6489 31.3105C65.2901 31.3105 64.9659 31.3969 64.6765 31.5698C64.3871 31.7427 64.1585 31.9786 63.9907 32.2774C63.8228 32.5763 63.7389 32.9103 63.7389 33.2794C63.7389 33.6486 63.8228 33.9826 63.9907 34.2815C64.1585 34.5803 64.3871 34.8147 64.6765 34.9846C64.9659 35.1546 65.2901 35.2396 65.6489 35.2396Z" fill="#7F43D6"/>
<path d="M71.544 30.8093C71.9666 30.8093 72.3442 30.8972 72.677 31.073C73.0098 31.2488 73.2704 31.5051 73.4585 31.8421C73.6466 32.179 73.7406 32.5819 73.7406 33.0507V35.4152C73.7406 35.4914 73.716 35.5543 73.6669 35.6041C73.6177 35.6539 73.5554 35.6788 73.4801 35.6788C73.405 35.6788 73.3427 35.6539 73.2935 35.6041C73.2443 35.5543 73.2196 35.4914 73.2196 35.4152V33.0507C73.2196 32.4941 73.0648 32.0692 72.7552 31.7762C72.4455 31.4832 72.0417 31.3367 71.544 31.3367C71.2372 31.3367 70.958 31.3967 70.7062 31.5169C70.4544 31.6371 70.2562 31.8041 70.1115 32.0179C69.9668 32.2318 69.8945 32.4677 69.8945 32.7255V35.4152C69.8945 35.4914 69.8713 35.5543 69.825 35.6041C69.7787 35.6539 69.715 35.6788 69.634 35.6788C69.5587 35.6788 69.4965 35.6539 69.4473 35.6041C69.3981 35.5543 69.3735 35.4914 69.3735 35.4152V31.1346C69.3735 31.0525 69.3981 30.9881 69.4473 30.9412C69.4965 30.8943 69.5587 30.8709 69.634 30.8709C69.715 30.8709 69.7787 30.8943 69.825 30.9412C69.8713 30.9881 69.8945 31.0525 69.8945 31.1346V31.5916C70.0913 31.3455 70.3314 31.1536 70.6151 31.0159C70.8986 30.8782 71.2083 30.8093 71.544 30.8093Z" fill="#7F43D6"/>
<path d="M82.7702 30.8093C83.1175 30.8093 83.4272 30.8972 83.6992 31.073C83.9713 31.2488 84.1825 31.4935 84.333 31.807C84.4834 32.1205 84.5587 32.4765 84.5587 32.8749V35.4152C84.5587 35.4914 84.5355 35.5543 84.4893 35.6041C84.4429 35.6539 84.3793 35.6788 84.2983 35.6788C84.223 35.6788 84.1608 35.6539 84.1115 35.6041C84.0623 35.5543 84.0377 35.4914 84.0377 35.4152V32.8749C84.0377 32.4237 83.9191 32.0545 83.6818 31.7674C83.4445 31.4802 83.1407 31.3367 82.7702 31.3367C82.3651 31.3367 82.0381 31.4714 81.7892 31.741C81.5403 32.0106 81.4216 32.3681 81.4332 32.8134V32.8749V35.4152C81.4332 35.4914 81.41 35.5543 81.3638 35.6041C81.3174 35.6539 81.2538 35.6788 81.1727 35.6788C81.0975 35.6788 81.0353 35.6539 80.9861 35.6041C80.9369 35.5543 80.9123 35.4914 80.9123 35.4152V32.8749C80.9123 32.4237 80.7936 32.0545 80.5563 31.7674C80.319 31.4802 80.0152 31.3367 79.6447 31.3367C79.2453 31.3367 78.9183 31.4656 78.6636 31.7234C78.409 31.9813 78.2817 32.3153 78.2817 32.7255V35.4152C78.2817 35.4914 78.2585 35.5543 78.2122 35.6041C78.1659 35.6539 78.1022 35.6788 78.0212 35.6788C77.9459 35.6788 77.8837 35.6539 77.8345 35.6041C77.7853 35.5543 77.7607 35.4914 77.7607 35.4152V31.1346C77.7607 31.0525 77.7853 30.9881 77.8345 30.9412C77.8837 30.8943 77.9459 30.8709 78.0212 30.8709C78.1022 30.8709 78.1659 30.8943 78.2122 30.9412C78.2585 30.9881 78.2817 31.0525 78.2817 31.1346V31.4774C78.4437 31.2664 78.6434 31.1023 78.8807 30.9851C79.118 30.8679 79.3727 30.8093 79.6447 30.8093C79.9804 30.8093 80.2814 30.8928 80.5476 31.0598C80.8139 31.2269 81.0251 31.4568 81.1814 31.7498C81.3377 31.4568 81.5547 31.2269 81.8326 31.0598C82.1104 30.8928 82.4229 30.8093 82.7702 30.8093Z" fill="#7F43D6"/>
<path d="M88.2051 30.8183C88.6565 30.8183 89.0675 30.9252 89.4379 31.1391C89.8083 31.353 90.0992 31.6474 90.3105 32.0225C90.5217 32.3975 90.6273 32.8165 90.6273 33.2794V35.4154C90.6273 35.4916 90.6042 35.5545 90.5579 35.6043C90.5115 35.6541 90.4479 35.679 90.3669 35.679C90.2916 35.679 90.2294 35.6541 90.1803 35.6043C90.1311 35.5545 90.1064 35.4916 90.1064 35.4154V34.7297C89.9154 35.0403 89.6535 35.2849 89.3207 35.4637C88.9879 35.6424 88.616 35.7318 88.2051 35.7318C87.7479 35.7318 87.334 35.6249 86.9636 35.4109C86.5931 35.1971 86.3023 34.9026 86.091 34.5275C85.8798 34.1525 85.7742 33.7365 85.7742 33.2794C85.7742 32.8165 85.8798 32.3975 86.091 32.0225C86.3023 31.6474 86.5931 31.353 86.9636 31.1391C87.334 30.9252 87.7479 30.8183 88.2051 30.8183ZM88.2051 35.2396C88.5639 35.2396 88.8881 35.1546 89.1775 34.9846C89.4668 34.8147 89.694 34.5803 89.859 34.2815C90.024 33.9826 90.1064 33.6486 90.1064 33.2794C90.1064 32.9103 90.024 32.5763 89.859 32.2774C89.694 31.9786 89.4668 31.7427 89.1775 31.5698C88.8881 31.3969 88.5639 31.3105 88.2051 31.3105C87.8463 31.3105 87.5221 31.3969 87.2327 31.5698C86.9433 31.7427 86.7147 31.9786 86.5469 32.2774C86.379 32.5763 86.295 32.9103 86.295 33.2794C86.295 33.6486 86.379 33.9826 86.5469 34.2815C86.7147 34.5803 86.9433 34.8147 87.2327 34.9846C87.5221 35.1546 87.8463 35.2396 88.2051 35.2396Z" fill="#7F43D6"/>
<path d="M94.1002 30.8093C94.5227 30.8093 94.9004 30.8972 95.2331 31.073C95.566 31.2488 95.8264 31.5051 96.0145 31.8421C96.2026 32.179 96.2967 32.5819 96.2967 33.0507V35.4152C96.2967 35.4914 96.2721 35.5543 96.2229 35.6041C96.1737 35.6539 96.1114 35.6788 96.0362 35.6788C95.961 35.6788 95.8988 35.6539 95.8496 35.6041C95.8004 35.5543 95.7758 35.4914 95.7758 35.4152V33.0507C95.7758 32.4941 95.6209 32.0692 95.3113 31.7762C95.0016 31.4832 94.5979 31.3367 94.1002 31.3367C93.7934 31.3367 93.5141 31.3967 93.2624 31.5169C93.0105 31.6371 92.8124 31.8041 92.6676 32.0179C92.523 32.2318 92.4506 32.4677 92.4506 32.7255V35.4152C92.4506 35.4914 92.4274 35.5543 92.3811 35.6041C92.3349 35.6539 92.2711 35.6788 92.1901 35.6788C92.1149 35.6788 92.0527 35.6539 92.0035 35.6041C91.9543 35.5543 91.9297 35.4914 91.9297 35.4152V31.1346C91.9297 31.0525 91.9543 30.9881 92.0035 30.9412C92.0527 30.8943 92.1149 30.8709 92.1901 30.8709C92.2711 30.8709 92.3349 30.8943 92.3811 30.9412C92.4274 30.9881 92.4506 31.0525 92.4506 31.1346V31.5916C92.6474 31.3455 92.8876 31.1536 93.1712 31.0159C93.4548 30.8782 93.7645 30.8093 94.1002 30.8093Z" fill="#7F43D6"/>
<path d="M99.9431 30.8183C100.395 30.8183 100.806 30.9252 101.176 31.1391C101.546 31.353 101.837 31.6474 102.048 32.0225C102.26 32.3975 102.365 32.8165 102.365 33.2794V35.4154C102.365 35.4916 102.342 35.5545 102.296 35.6043C102.25 35.6541 102.186 35.679 102.105 35.679C102.03 35.679 101.967 35.6541 101.918 35.6043C101.869 35.5545 101.844 35.4916 101.844 35.4154V34.7297C101.653 35.0403 101.392 35.2849 101.059 35.4637C100.726 35.6424 100.354 35.7318 99.9431 35.7318C99.4859 35.7318 99.072 35.6249 98.7016 35.4109C98.3312 35.1971 98.0403 34.9026 97.829 34.5275C97.6178 34.1525 97.5122 33.7365 97.5122 33.2794C97.5122 32.8165 97.6178 32.3975 97.829 32.0225C98.0403 31.6474 98.3312 31.353 98.7016 31.1391C99.072 30.9252 99.4859 30.8183 99.9431 30.8183ZM99.9431 35.2396C100.302 35.2396 100.626 35.1546 100.916 34.9846C101.205 34.8147 101.432 34.5803 101.597 34.2815C101.762 33.9826 101.844 33.6486 101.844 33.2794C101.844 32.9103 101.762 32.5763 101.597 32.2774C101.432 31.9786 101.205 31.7427 100.916 31.5698C100.626 31.3969 100.302 31.3105 99.9431 31.3105C99.5843 31.3105 99.2601 31.3969 98.9707 31.5698C98.6813 31.7427 98.4527 31.9786 98.2849 32.2774C98.117 32.5763 98.0331 32.9103 98.0331 33.2794C98.0331 33.6486 98.117 33.9826 98.2849 34.2815C98.4527 34.5803 98.6813 34.8147 98.9707 34.9846C99.2601 35.1546 99.5843 35.2396 99.9431 35.2396Z" fill="#7F43D6"/>
<path d="M105.838 30.8183C106.307 30.8183 106.725 30.9237 107.093 31.1347C107.46 31.3457 107.747 31.6372 107.952 32.0093C108.158 32.3814 108.26 32.8048 108.26 33.2794V35.0022C108.26 35.471 108.156 35.8973 107.948 36.2811C107.74 36.665 107.453 36.9667 107.088 37.1865C106.724 37.4062 106.319 37.5161 105.873 37.5161C105.416 37.5161 105.015 37.4297 104.67 37.2567C104.326 37.0839 104.038 36.8481 103.807 36.5492C103.76 36.4906 103.737 36.4321 103.737 36.3735C103.737 36.3031 103.766 36.2475 103.824 36.2064C103.87 36.1713 103.922 36.1537 103.98 36.1537C104.073 36.1537 104.148 36.1917 104.206 36.2679C104.397 36.5023 104.633 36.6869 104.913 36.8217C105.194 36.9565 105.514 37.0238 105.873 37.0238C106.226 37.0238 106.544 36.936 106.828 36.7602C107.111 36.5843 107.334 36.3426 107.496 36.035C107.658 35.7274 107.74 35.3831 107.74 35.0022V34.6155C107.572 34.9612 107.321 35.2337 106.988 35.433C106.656 35.6322 106.272 35.7318 105.838 35.7318C105.369 35.7318 104.951 35.6277 104.584 35.4197C104.216 35.2117 103.928 34.9216 103.72 34.5496C103.511 34.1774 103.407 33.754 103.407 33.2794C103.407 32.8107 103.514 32.3887 103.728 32.0137C103.943 31.6386 104.235 31.3457 104.605 31.1347C104.976 30.9237 105.387 30.8183 105.838 30.8183ZM105.838 35.2396C106.203 35.2396 106.53 35.156 106.819 34.989C107.109 34.822 107.334 34.5906 107.496 34.2946C107.658 33.9987 107.74 33.6604 107.74 33.2794C107.74 32.8985 107.658 32.5587 107.496 32.2598C107.334 31.961 107.109 31.7281 106.819 31.5611C106.53 31.394 106.203 31.3105 105.838 31.3105C105.468 31.3105 105.138 31.394 104.848 31.5611C104.559 31.7281 104.333 31.961 104.171 32.2598C104.009 32.5587 103.928 32.8985 103.928 33.2794C103.928 33.6604 104.009 33.9987 104.171 34.2946C104.333 34.5906 104.559 34.822 104.848 34.989C105.138 35.156 105.468 35.2396 105.838 35.2396Z" fill="#7F43D6"/>
<path d="M111.533 30.8271C111.956 30.8271 112.334 30.9282 112.666 31.1303C112.999 31.3325 113.258 31.6123 113.444 31.9698C113.629 32.3272 113.721 32.7345 113.721 33.1915C113.721 33.2677 113.698 33.3277 113.652 33.3717C113.606 33.4157 113.545 33.4376 113.47 33.4376H109.832C109.849 33.7834 109.939 34.0925 110.101 34.365C110.263 34.6374 110.48 34.8499 110.752 35.0022C111.024 35.1546 111.328 35.2308 111.664 35.2308C111.889 35.2308 112.117 35.1912 112.345 35.1121C112.574 35.033 112.755 34.929 112.888 34.8001C112.946 34.7531 113.006 34.7297 113.07 34.7297C113.134 34.7297 113.186 34.7473 113.226 34.7825C113.29 34.8352 113.322 34.8967 113.322 34.9671C113.322 35.0256 113.296 35.0813 113.244 35.134C113.059 35.304 112.817 35.4446 112.519 35.556C112.221 35.6673 111.936 35.723 111.664 35.723C111.206 35.723 110.8 35.6189 110.444 35.4109C110.088 35.2029 109.809 34.9128 109.606 34.5408C109.403 34.1686 109.302 33.7482 109.302 33.2794C109.302 32.8047 109.396 32.3814 109.584 32.0093C109.772 31.6372 110.036 31.3471 110.374 31.1391C110.713 30.9311 111.099 30.8271 111.533 30.8271ZM111.533 31.3193C111.082 31.3193 110.701 31.4716 110.392 31.7764C110.082 32.0811 109.898 32.4825 109.84 32.9806H113.218C113.177 32.4825 113.004 32.0811 112.697 31.7764C112.39 31.4716 112.002 31.3193 111.533 31.3193Z" fill="#7F43D6"/>
<path d="M119.859 30.8093C120.207 30.8093 120.516 30.8972 120.788 31.073C121.06 31.2488 121.272 31.4935 121.422 31.807C121.573 32.1205 121.648 32.4765 121.648 32.8749V35.4152C121.648 35.4914 121.625 35.5543 121.578 35.6041C121.532 35.6539 121.468 35.6788 121.387 35.6788C121.312 35.6788 121.25 35.6539 121.201 35.6041C121.152 35.5543 121.127 35.4914 121.127 35.4152V32.8749C121.127 32.4237 121.008 32.0545 120.771 31.7674C120.534 31.4802 120.23 31.3367 119.859 31.3367C119.454 31.3367 119.127 31.4714 118.878 31.741C118.629 32.0106 118.511 32.3681 118.522 32.8134V32.8749V35.4152C118.522 35.4914 118.499 35.5543 118.453 35.6041C118.407 35.6539 118.343 35.6788 118.262 35.6788C118.187 35.6788 118.124 35.6539 118.075 35.6041C118.026 35.5543 118.001 35.4914 118.001 35.4152V32.8749C118.001 32.4237 117.883 32.0545 117.645 31.7674C117.408 31.4802 117.104 31.3367 116.734 31.3367C116.334 31.3367 116.007 31.4656 115.753 31.7234C115.498 31.9813 115.371 32.3153 115.371 32.7255V35.4152C115.371 35.4914 115.348 35.5543 115.301 35.6041C115.255 35.6539 115.191 35.6788 115.11 35.6788C115.035 35.6788 114.973 35.6539 114.924 35.6041C114.874 35.5543 114.85 35.4914 114.85 35.4152V31.1346C114.85 31.0525 114.874 30.9881 114.924 30.9412C114.973 30.8943 115.035 30.8709 115.11 30.8709C115.191 30.8709 115.255 30.8943 115.301 30.9412C115.348 30.9881 115.371 31.0525 115.371 31.1346V31.4774C115.533 31.2664 115.733 31.1023 115.97 30.9851C116.207 30.8679 116.462 30.8093 116.734 30.8093C117.07 30.8093 117.37 30.8928 117.637 31.0598C117.903 31.2269 118.114 31.4568 118.271 31.7498C118.427 31.4568 118.644 31.2269 118.922 31.0598C119.199 30.8928 119.512 30.8093 119.859 30.8093Z" fill="#7F43D6"/>
<path d="M125.094 30.8271C125.517 30.8271 125.895 30.9282 126.227 31.1303C126.56 31.3325 126.819 31.6123 127.005 31.9698C127.19 32.3272 127.282 32.7345 127.282 33.1915C127.282 33.2677 127.259 33.3277 127.213 33.3717C127.167 33.4157 127.106 33.4376 127.031 33.4376H123.393C123.41 33.7834 123.5 34.0925 123.662 34.365C123.824 34.6374 124.041 34.8499 124.313 35.0022C124.585 35.1546 124.889 35.2308 125.225 35.2308C125.45 35.2308 125.678 35.1912 125.906 35.1121C126.135 35.033 126.316 34.929 126.449 34.8001C126.507 34.7531 126.568 34.7297 126.631 34.7297C126.695 34.7297 126.747 34.7473 126.787 34.7825C126.851 34.8352 126.883 34.8967 126.883 34.9671C126.883 35.0256 126.857 35.0813 126.805 35.134C126.62 35.304 126.378 35.4446 126.08 35.556C125.782 35.6673 125.497 35.723 125.225 35.723C124.767 35.723 124.361 35.6189 124.005 35.4109C123.649 35.2029 123.37 34.9128 123.167 34.5408C122.965 34.1686 122.863 33.7482 122.863 33.2794C122.863 32.8047 122.957 32.3814 123.145 32.0093C123.333 31.6372 123.597 31.3471 123.935 31.1391C124.274 30.9311 124.66 30.8271 125.094 30.8271ZM125.094 31.3193C124.643 31.3193 124.262 31.4716 123.953 31.7764C123.643 32.0811 123.459 32.4825 123.402 32.9806H126.779C126.738 32.4825 126.565 32.0811 126.258 31.7764C125.951 31.4716 125.563 31.3193 125.094 31.3193Z" fill="#7F43D6"/>
<path d="M130.582 30.8093C131.004 30.8093 131.382 30.8972 131.715 31.073C132.048 31.2488 132.308 31.5051 132.496 31.8421C132.684 32.179 132.778 32.5819 132.778 33.0507V35.4152C132.778 35.4914 132.754 35.5543 132.705 35.6041C132.655 35.6539 132.593 35.6788 132.518 35.6788C132.443 35.6788 132.38 35.6539 132.331 35.6041C132.282 35.5543 132.257 35.4914 132.257 35.4152V33.0507C132.257 32.4941 132.103 32.0692 131.793 31.7762C131.483 31.4832 131.08 31.3367 130.582 31.3367C130.275 31.3367 129.996 31.3967 129.744 31.5169C129.492 31.6371 129.294 31.8041 129.149 32.0179C129.005 32.2318 128.932 32.4677 128.932 32.7255V35.4152C128.932 35.4914 128.909 35.5543 128.863 35.6041C128.817 35.6539 128.753 35.6788 128.672 35.6788C128.597 35.6788 128.534 35.6539 128.485 35.6041C128.436 35.5543 128.411 35.4914 128.411 35.4152V31.1346C128.411 31.0525 128.436 30.9881 128.485 30.9412C128.534 30.8943 128.597 30.8709 128.672 30.8709C128.753 30.8709 128.817 30.8943 128.863 30.9412C128.909 30.9881 128.932 31.0525 128.932 31.1346V31.5916C129.129 31.3455 129.369 31.1536 129.653 31.0159C129.936 30.8782 130.246 30.8093 130.582 30.8093Z" fill="#7F43D6"/>
<path d="M136.399 35.1427C136.48 35.1427 136.545 35.1676 136.594 35.2174C136.643 35.2672 136.668 35.3332 136.668 35.4152C136.668 35.4914 136.643 35.5544 136.594 35.6042C136.545 35.654 136.48 35.6789 136.399 35.6789H136.199C135.881 35.6789 135.597 35.6056 135.348 35.4591C135.099 35.3126 134.905 35.1119 134.766 34.8571C134.628 34.6021 134.558 34.3135 134.558 33.9913V31.5213H133.881C133.811 31.5213 133.755 31.4993 133.712 31.4554C133.668 31.4115 133.646 31.3544 133.646 31.284C133.646 31.2136 133.668 31.1565 133.712 31.1126C133.755 31.0687 133.811 31.0467 133.881 31.0467H134.558V29.614C134.558 29.5319 134.583 29.466 134.632 29.4161C134.681 29.3663 134.743 29.3414 134.818 29.3414C134.9 29.3414 134.965 29.3663 135.014 29.4161C135.063 29.466 135.088 29.5319 135.088 29.614V31.0467H136.234C136.303 31.0467 136.36 31.0687 136.403 31.1126C136.446 31.1565 136.468 31.2136 136.468 31.284C136.468 31.3544 136.446 31.4115 136.403 31.4554C136.36 31.4993 136.303 31.5213 136.234 31.5213H135.088V33.9913C135.088 34.3311 135.192 34.608 135.4 34.8219C135.609 35.0357 135.878 35.1427 136.208 35.1427H136.399Z" fill="#7F43D6"/>
<path d="M141.912 35.7318C141.576 35.7318 141.249 35.6717 140.931 35.5515C140.612 35.4315 140.349 35.2484 140.141 35.0022C140.1 34.9553 140.08 34.9026 140.08 34.844C140.08 34.7619 140.118 34.6946 140.193 34.6419C140.227 34.6125 140.277 34.5979 140.34 34.5979C140.421 34.5979 140.488 34.6301 140.54 34.6945C140.829 35.052 141.295 35.2308 141.938 35.2308C142.395 35.2308 142.732 35.1487 142.949 34.9846C143.166 34.8205 143.275 34.6096 143.275 34.3517C143.275 33.8888 142.832 33.593 141.946 33.464C141.385 33.382 140.961 33.2267 140.675 32.9981C140.388 32.7697 140.245 32.4942 140.245 32.1719C140.245 31.7442 140.4 31.4116 140.709 31.1743C141.019 30.937 141.423 30.8183 141.92 30.8183C142.65 30.8183 143.203 31.082 143.579 31.6094C143.614 31.6504 143.631 31.7002 143.631 31.7588C143.631 31.8408 143.585 31.9082 143.492 31.961C143.434 31.9844 143.391 31.9961 143.362 31.9961C143.275 31.9961 143.203 31.958 143.145 31.8818C142.849 31.501 142.436 31.3105 141.903 31.3105C141.55 31.3105 141.269 31.3882 141.061 31.5435C140.853 31.6987 140.748 31.8906 140.748 32.1192C140.748 32.3536 140.848 32.5411 141.048 32.6817C141.248 32.8223 141.582 32.9279 142.051 32.9981C142.664 33.0861 143.106 33.2516 143.375 33.4947C143.644 33.7379 143.779 34.0324 143.779 34.3781C143.779 34.6477 143.693 34.885 143.522 35.0901C143.352 35.2952 143.124 35.4534 142.841 35.5648C142.557 35.6761 142.247 35.7318 141.912 35.7318Z" fill="#7F43D6"/>
<path d="M148.727 30.8799C148.837 30.9267 148.892 30.9941 148.892 31.082C148.892 31.1054 148.881 31.1465 148.857 31.2051L145.94 37.604C145.888 37.7095 145.822 37.7623 145.741 37.7623C145.706 37.7623 145.665 37.7535 145.619 37.7359C145.509 37.689 145.454 37.6216 145.454 37.5337C145.454 37.5103 145.466 37.4692 145.489 37.4106L146.357 35.5121C146.351 35.5062 146.34 35.4857 146.322 35.4505L144.421 31.2314C144.398 31.1846 144.386 31.1377 144.386 31.0908C144.386 31.0029 144.435 30.9355 144.534 30.8887C144.58 30.8652 144.626 30.8535 144.673 30.8535C144.76 30.8535 144.826 30.9033 144.872 31.0029L146.635 34.9056L148.406 31.0117C148.458 30.9062 148.525 30.8535 148.606 30.8535C148.646 30.8535 148.687 30.8623 148.727 30.8799Z" fill="#7F43D6"/>
<path d="M151.375 35.7318C151.04 35.7318 150.713 35.6717 150.394 35.5515C150.076 35.4315 149.813 35.2484 149.604 35.0022C149.564 34.9553 149.543 34.9026 149.543 34.844C149.543 34.7619 149.581 34.6946 149.656 34.6419C149.691 34.6125 149.74 34.5979 149.804 34.5979C149.885 34.5979 149.952 34.6301 150.004 34.6945C150.293 35.052 150.759 35.2308 151.401 35.2308C151.859 35.2308 152.196 35.1487 152.413 34.9846C152.63 34.8205 152.738 34.6096 152.738 34.3517C152.738 33.8888 152.296 33.593 151.41 33.464C150.849 33.382 150.425 33.2267 150.138 32.9981C149.852 32.7697 149.708 32.4942 149.708 32.1719C149.708 31.7442 149.863 31.4116 150.173 31.1743C150.483 30.937 150.886 30.8183 151.384 30.8183C152.113 30.8183 152.666 31.082 153.042 31.6094C153.077 31.6504 153.094 31.7002 153.094 31.7588C153.094 31.8408 153.048 31.9082 152.955 31.961C152.898 31.9844 152.854 31.9961 152.825 31.9961C152.738 31.9961 152.666 31.958 152.608 31.8818C152.313 31.501 151.899 31.3105 151.367 31.3105C151.014 31.3105 150.733 31.3882 150.525 31.5435C150.316 31.6987 150.212 31.8906 150.212 32.1192C150.212 32.3536 150.312 32.5411 150.512 32.6817C150.711 32.8223 151.045 32.9279 151.514 32.9981C152.128 33.0861 152.569 33.2516 152.838 33.4947C153.107 33.7379 153.242 34.0324 153.242 34.3781C153.242 34.6477 153.157 34.885 152.986 35.0901C152.815 35.2952 152.588 35.4534 152.304 35.5648C152.021 35.6761 151.711 35.7318 151.375 35.7318Z" fill="#7F43D6"/>
<path d="M156.558 35.1427C156.639 35.1427 156.704 35.1676 156.753 35.2174C156.803 35.2672 156.827 35.3332 156.827 35.4152C156.827 35.4914 156.803 35.5544 156.753 35.6042C156.704 35.654 156.639 35.6789 156.558 35.6789H156.358C156.04 35.6789 155.756 35.6056 155.508 35.4591C155.259 35.3126 155.065 35.1119 154.926 34.8571C154.787 34.6021 154.717 34.3135 154.717 33.9913V31.5213H154.04C153.971 31.5213 153.914 31.4993 153.871 31.4554C153.828 31.4115 153.806 31.3544 153.806 31.284C153.806 31.2136 153.828 31.1565 153.871 31.1126C153.914 31.0687 153.971 31.0467 154.04 31.0467H154.717V29.614C154.717 29.5319 154.742 29.466 154.791 29.4161C154.84 29.3663 154.903 29.3414 154.978 29.3414C155.059 29.3414 155.124 29.3663 155.173 29.4161C155.223 29.466 155.247 29.5319 155.247 29.614V31.0467H156.393C156.463 31.0467 156.519 31.0687 156.562 31.1126C156.606 31.1565 156.628 31.2136 156.628 31.284C156.628 31.3544 156.606 31.4115 156.562 31.4554C156.519 31.4993 156.463 31.5213 156.393 31.5213H155.247V33.9913C155.247 34.3311 155.351 34.608 155.56 34.8219C155.768 35.0357 156.037 35.1427 156.367 35.1427H156.558Z" fill="#7F43D6"/>
<path d="M159.883 30.8271C160.306 30.8271 160.683 30.9282 161.016 31.1303C161.349 31.3325 161.608 31.6123 161.793 31.9698C161.978 32.3272 162.071 32.7345 162.071 33.1915C162.071 33.2677 162.048 33.3277 162.002 33.3717C161.955 33.4157 161.894 33.4376 161.819 33.4376H158.181C158.199 33.7834 158.288 34.0925 158.451 34.365C158.613 34.6374 158.83 34.8499 159.102 35.0022C159.374 35.1546 159.678 35.2308 160.013 35.2308C160.239 35.2308 160.466 35.1912 160.695 35.1121C160.924 35.033 161.104 34.929 161.238 34.8001C161.295 34.7531 161.356 34.7297 161.42 34.7297C161.483 34.7297 161.536 34.7473 161.576 34.7825C161.64 34.8352 161.672 34.8967 161.672 34.9671C161.672 35.0256 161.646 35.0813 161.593 35.134C161.408 35.304 161.167 35.4446 160.868 35.556C160.57 35.6673 160.285 35.723 160.013 35.723C159.556 35.723 159.149 35.6189 158.794 35.4109C158.438 35.2029 158.158 34.9128 157.956 34.5408C157.753 34.1686 157.652 33.7482 157.652 33.2794C157.652 32.8047 157.746 32.3814 157.934 32.0093C158.122 31.6372 158.385 31.3471 158.724 31.1391C159.063 30.9311 159.449 30.8271 159.883 30.8271ZM159.883 31.3193C159.432 31.3193 159.051 31.4716 158.741 31.7764C158.432 32.0811 158.248 32.4825 158.19 32.9806H161.567C161.527 32.4825 161.353 32.0811 161.046 31.7764C160.74 31.4716 160.352 31.3193 159.883 31.3193Z" fill="#7F43D6"/>
<path d="M168.209 30.8093C168.556 30.8093 168.866 30.8972 169.138 31.073C169.41 31.2488 169.622 31.4935 169.772 31.807C169.922 32.1205 169.998 32.4765 169.998 32.8749V35.4152C169.998 35.4914 169.975 35.5543 169.928 35.6041C169.882 35.6539 169.818 35.6788 169.737 35.6788C169.662 35.6788 169.6 35.6539 169.551 35.6041C169.501 35.5543 169.477 35.4914 169.477 35.4152V32.8749C169.477 32.4237 169.358 32.0545 169.121 31.7674C168.884 31.4802 168.58 31.3367 168.209 31.3367C167.804 31.3367 167.477 31.4714 167.228 31.741C166.979 32.0106 166.861 32.3681 166.872 32.8134V32.8749V35.4152C166.872 35.4914 166.849 35.5543 166.803 35.6041C166.756 35.6539 166.693 35.6788 166.612 35.6788C166.537 35.6788 166.474 35.6539 166.425 35.6041C166.376 35.5543 166.351 35.4914 166.351 35.4152V32.8749C166.351 32.4237 166.233 32.0545 165.995 31.7674C165.758 31.4802 165.454 31.3367 165.084 31.3367C164.684 31.3367 164.357 31.4656 164.103 31.7234C163.848 31.9813 163.721 32.3153 163.721 32.7255V35.4152C163.721 35.4914 163.697 35.5543 163.651 35.6041C163.605 35.6539 163.541 35.6788 163.46 35.6788C163.385 35.6788 163.323 35.6539 163.273 35.6041C163.224 35.5543 163.2 35.4914 163.2 35.4152V31.1346C163.2 31.0525 163.224 30.9881 163.273 30.9412C163.323 30.8943 163.385 30.8709 163.46 30.8709C163.541 30.8709 163.605 30.8943 163.651 30.9412C163.697 30.9881 163.721 31.0525 163.721 31.1346V31.4774C163.883 31.2664 164.082 31.1023 164.32 30.9851C164.557 30.8679 164.812 30.8093 165.084 30.8093C165.419 30.8093 165.72 30.8928 165.987 31.0598C166.253 31.2269 166.464 31.4568 166.62 31.7498C166.777 31.4568 166.994 31.2269 167.272 31.0598C167.549 30.8928 167.862 30.8093 168.209 30.8093Z" fill="#7F43D6"/>
<path d="M29.8167 23.4121C29.0805 23.4121 28.3633 23.2805 27.6651 23.017C26.9669 22.7535 26.3893 22.3519 25.9323 21.8121C25.8434 21.7093 25.7991 21.5937 25.7991 21.4651C25.7991 21.2852 25.8816 21.1374 26.0466 21.0218C26.1227 20.9575 26.2307 20.9254 26.3702 20.9254C26.548 20.9254 26.694 20.996 26.8082 21.1374C27.4429 21.9213 28.4649 22.3133 29.8739 22.3133C30.8768 22.3133 31.6162 22.1334 32.0922 21.7736C32.5683 21.4137 32.8063 20.951 32.8063 20.3856C32.8063 19.3703 31.8352 18.7212 29.8929 18.4385C28.6616 18.2586 27.7317 17.9179 27.1034 17.4167C26.475 16.9155 26.1608 16.3115 26.1608 15.6046C26.1608 14.6665 26.5004 13.9371 27.1796 13.4166C27.8587 12.896 28.7441 12.6359 29.8358 12.6359C31.4353 12.6359 32.6476 13.2141 33.4727 14.3708C33.5489 14.4608 33.587 14.5701 33.587 14.6986C33.587 14.8785 33.4855 15.0263 33.2823 15.142C33.1554 15.1934 33.0602 15.219 32.9967 15.219C32.8063 15.219 32.6476 15.1355 32.5206 14.9684C31.8733 14.1331 30.9656 13.7154 29.7977 13.7154C29.0234 13.7154 28.4077 13.8857 27.9507 14.2263C27.4938 14.5669 27.2652 14.9878 27.2652 15.489C27.2652 16.0031 27.4842 16.4143 27.9222 16.7227C28.3601 17.0312 29.0932 17.2625 30.1215 17.4167C31.467 17.6095 32.435 17.9726 33.0252 18.506C33.6155 19.0393 33.9107 19.6851 33.9107 20.4434C33.9107 21.0346 33.7235 21.5551 33.349 22.0049C32.9745 22.4548 32.4763 22.8017 31.8543 23.0459C31.2322 23.2901 30.553 23.4121 29.8167 23.4121Z" fill="#7F43D6"/>
<path d="M44.7641 12.7707C45.0053 12.8735 45.1259 13.0214 45.1259 13.2141C45.1259 13.2656 45.1005 13.3555 45.0497 13.484L38.6518 27.5183C38.5376 27.7497 38.3915 27.8653 38.2138 27.8653C38.1377 27.8653 38.0488 27.8461 37.9473 27.8075C37.7061 27.7047 37.5855 27.5569 37.5855 27.3641C37.5855 27.3127 37.6108 27.2227 37.6617 27.0942L39.5658 22.9302C39.5531 22.9173 39.5277 22.8723 39.4896 22.7953L35.3195 13.5418C35.2688 13.439 35.2434 13.3363 35.2434 13.2334C35.2434 13.0406 35.3513 12.8929 35.5671 12.79C35.6686 12.7386 35.7702 12.7129 35.8718 12.7129C36.0622 12.7129 36.2081 12.8222 36.3097 13.0406L40.1752 21.6L44.0596 13.0599C44.1738 12.8286 44.3198 12.7129 44.4975 12.7129C44.5864 12.7129 44.6752 12.7322 44.7641 12.7707Z" fill="#7F43D6"/>
<path d="M58.0172 12.6168C58.7789 12.6168 59.458 12.8095 60.0546 13.1951C60.6513 13.5807 61.1146 14.1172 61.4447 14.8048C61.7747 15.4924 61.9397 16.2731 61.9397 17.1471V22.7184C61.9397 22.8855 61.889 23.0237 61.7874 23.1329C61.6859 23.2421 61.5463 23.2967 61.3685 23.2967C61.2035 23.2967 61.067 23.2421 60.9591 23.1329C60.8512 23.0237 60.7973 22.8855 60.7973 22.7184V17.1471C60.7973 16.1575 60.5371 15.3478 60.0165 14.7181C59.4961 14.0883 58.8296 13.7735 58.0172 13.7735C57.1286 13.7735 56.4114 14.0691 55.8656 14.6602C55.3197 15.2514 55.0594 16.0354 55.0849 17.0122V17.1471V22.7184C55.0849 22.8855 55.034 23.0237 54.9325 23.1329C54.831 23.2421 54.6913 23.2967 54.5136 23.2967C54.3486 23.2967 54.2121 23.2421 54.1042 23.1329C53.9963 23.0237 53.9423 22.8855 53.9423 22.7184V17.1471C53.9423 16.1575 53.6821 15.3478 53.1617 14.7181C52.6412 14.0883 51.9748 13.7735 51.1623 13.7735C50.2864 13.7735 49.5691 14.0562 49.0106 14.6217C48.4521 15.1871 48.1728 15.9197 48.1728 16.8194V22.7184C48.1728 22.8855 48.1221 23.0237 48.0205 23.1329C47.9189 23.2421 47.7792 23.2967 47.6015 23.2967C47.4365 23.2967 47.3001 23.2421 47.1921 23.1329C47.0843 23.0237 47.0303 22.8855 47.0303 22.7184V13.3301C47.0303 13.1501 47.0843 13.0088 47.1921 12.9059C47.3001 12.8031 47.4365 12.7517 47.6015 12.7517C47.7792 12.7517 47.9189 12.8031 48.0205 12.9059C48.1221 13.0088 48.1728 13.1501 48.1728 13.3301V14.0819C48.5283 13.6193 48.9662 13.2594 49.4867 13.0023C50.0071 12.7453 50.5657 12.6168 51.1623 12.6168C51.8986 12.6168 52.5587 12.8 53.1426 13.1662C53.7266 13.5324 54.1899 14.037 54.5326 14.6795C54.8754 14.037 55.3514 13.5324 55.9608 13.1662C56.57 12.8 57.2555 12.6168 58.0172 12.6168Z" fill="#7F43D6"/>
<path d="M69.9371 12.6359C70.9272 12.6359 71.8285 12.8704 72.6409 13.3395C73.4534 13.8086 74.0912 14.4543 74.5545 15.2769C75.018 16.0995 75.2496 17.0184 75.2496 18.0337V22.7182C75.2496 22.8853 75.1988 23.0234 75.0973 23.1326C74.9957 23.2419 74.8561 23.2965 74.6783 23.2965C74.5133 23.2965 74.3769 23.2419 74.269 23.1326C74.1611 23.0234 74.1071 22.8853 74.1071 22.7182V21.2145C73.6882 21.8956 73.1138 22.4322 72.3839 22.8242C71.654 23.2162 70.8383 23.4121 69.9371 23.4121C68.9342 23.4121 68.0266 23.1777 67.2141 22.7086C66.4016 22.2394 65.7638 21.5937 65.3004 20.7711C64.8371 19.9485 64.6055 19.0361 64.6055 18.0337C64.6055 17.0184 64.8371 16.0995 65.3004 15.2769C65.7638 14.4543 66.4016 13.8086 67.2141 13.3395C68.0266 12.8704 68.9342 12.6359 69.9371 12.6359ZM69.9371 22.3326C70.7241 22.3326 71.435 22.1462 72.0697 21.7736C72.7044 21.4009 73.2027 20.8868 73.5644 20.2314C73.9262 19.5759 74.1071 18.8433 74.1071 18.0337C74.1071 17.224 73.9262 16.4914 73.5644 15.836C73.2027 15.1806 72.7044 14.6632 72.0697 14.2841C71.435 13.905 70.7241 13.7154 69.9371 13.7154C69.15 13.7154 68.4391 13.905 67.8044 14.2841C67.1697 14.6632 66.6683 15.1806 66.3002 15.836C65.932 16.4914 65.7479 17.224 65.7479 18.0337C65.7479 18.8433 65.932 19.5759 66.3002 20.2314C66.6683 20.8868 67.1697 21.4009 67.8044 21.7736C68.4391 22.1462 69.15 22.3326 69.9371 22.3326Z" fill="#7F43D6"/>
<path d="M87.6078 8.24054C87.7855 8.24054 87.9251 8.29192 88.0267 8.39475C88.1283 8.49759 88.179 8.639 88.179 8.8189V18.0916V18.1301C88.1664 19.1197 87.9251 20.0193 87.4554 20.829C86.9858 21.6387 86.3479 22.2716 85.5418 22.7279C84.7357 23.1842 83.8439 23.4122 82.8665 23.4122C81.8637 23.4122 80.956 23.1777 80.1435 22.7086C79.3311 22.2395 78.6933 21.5937 78.2299 20.7712C77.7665 19.9486 77.5349 19.0297 77.5349 18.0144C77.5349 17.012 77.7665 16.0995 78.2299 15.277C78.6933 14.4544 79.3311 13.8087 80.1435 13.3396C80.956 12.8704 81.8637 12.6359 82.8665 12.6359C83.7678 12.6359 84.5834 12.8319 85.3133 13.2239C86.0432 13.6159 86.6176 14.1524 87.0366 14.8335V8.8189C87.0366 8.639 87.0905 8.49759 87.1985 8.39475C87.3063 8.29192 87.4428 8.24054 87.6078 8.24054ZM82.8665 22.3327C83.6536 22.3327 84.3644 22.1431 84.9992 21.764C85.6338 21.3848 86.1321 20.8675 86.4939 20.2121C86.8556 19.5567 87.0366 18.8241 87.0366 18.0144C87.0366 17.2048 86.8556 16.4722 86.4939 15.8168C86.1321 15.1613 85.6338 14.6472 84.9992 14.2745C84.3644 13.9018 83.6536 13.7155 82.8665 13.7155C82.0795 13.7155 81.3685 13.9018 80.7339 14.2745C80.0991 14.6472 79.5977 15.1613 79.2296 15.8168C78.8614 16.4722 78.6774 17.2048 78.6774 18.0144C78.6774 18.8241 78.8614 19.5567 79.2296 20.2121C79.5977 20.8675 80.0991 21.3848 80.7339 21.764C81.3685 22.1431 82.0795 22.3327 82.8665 22.3327Z" fill="#7F43D6"/>
<path d="M95.9288 12.6553C96.8554 12.6553 97.6838 12.877 98.4136 13.3204C99.1436 13.7637 99.7117 14.3775 100.118 15.1614C100.524 15.9453 100.727 16.8386 100.727 17.8411C100.727 18.0082 100.676 18.1398 100.575 18.2362C100.473 18.3326 100.34 18.3808 100.175 18.3808H92.1967C92.2347 19.1391 92.4315 19.8171 92.787 20.4147C93.1423 21.0123 93.6184 21.4781 94.215 21.8123C94.8117 22.1464 95.4781 22.3135 96.2144 22.3135C96.7095 22.3135 97.2077 22.2268 97.7092 22.0532C98.2106 21.8798 98.6073 21.6516 98.8993 21.3689C99.0262 21.2661 99.1595 21.2147 99.2991 21.2147C99.4388 21.2147 99.553 21.2532 99.6418 21.3303C99.7815 21.446 99.8513 21.5809 99.8513 21.7352C99.8513 21.8637 99.7941 21.9858 99.6799 22.1015C99.2737 22.4742 98.7437 22.7826 98.09 23.0267C97.4363 23.271 96.811 23.3931 96.2144 23.3931C95.2115 23.3931 94.3198 23.1649 93.5391 22.7087C92.7584 22.2525 92.1459 21.6163 91.7015 20.8002C91.2572 19.9841 91.0352 19.0619 91.0352 18.0338C91.0352 16.9928 91.2414 16.0643 91.654 15.2481C92.0666 14.432 92.6441 13.7959 93.3868 13.3397C94.1294 12.8834 94.9767 12.6553 95.9288 12.6553ZM95.9288 13.7348C94.9386 13.7348 94.104 14.069 93.4248 14.7373C92.7457 15.4056 92.3426 16.286 92.2157 17.3783H99.6228C99.534 16.286 99.1531 15.4056 98.4803 14.7373C97.8076 14.069 96.957 13.7348 95.9288 13.7348Z" fill="#7F43D6"/>
<path d="M107.43 23.4123C106.452 23.4123 105.57 23.1778 104.783 22.7087C103.996 22.2396 103.377 21.5938 102.926 20.7713C102.476 19.9487 102.25 19.0362 102.25 18.0338C102.25 17.0185 102.46 16.1029 102.879 15.2867C103.298 14.4706 103.882 13.828 104.631 13.3589C105.38 12.8899 106.217 12.6553 107.144 12.6553C107.957 12.6553 108.699 12.8159 109.372 13.1372C110.045 13.4585 110.629 13.9341 111.124 14.5638C111.213 14.6923 111.257 14.8015 111.257 14.8915C111.257 15.0714 111.168 15.2129 110.99 15.3156C110.902 15.3928 110.8 15.4313 110.686 15.4313C110.508 15.4313 110.362 15.3542 110.248 15.2C109.435 14.2232 108.401 13.7348 107.144 13.7348C106.408 13.7348 105.754 13.918 105.183 14.2843C104.612 14.6505 104.17 15.1614 103.859 15.8169C103.548 16.4723 103.393 17.2113 103.393 18.0338C103.393 18.8435 103.564 19.576 103.907 20.2315C104.25 20.887 104.726 21.401 105.335 21.7737C105.944 22.1464 106.643 22.3328 107.43 22.3328C108.547 22.3328 109.442 22.0179 110.115 21.3882C110.229 21.2725 110.362 21.2147 110.514 21.2147C110.654 21.2147 110.768 21.2596 110.857 21.3496C110.984 21.4653 111.048 21.6066 111.048 21.7737C111.048 21.9151 110.997 22.0308 110.895 22.1207C110.451 22.532 109.931 22.8501 109.334 23.075C108.737 23.2999 108.103 23.4123 107.43 23.4123Z" fill="#7F43D6"/>
<path d="M118.874 23.4121C117.871 23.4121 116.963 23.1777 116.151 22.7086C115.338 22.2394 114.7 21.5937 114.237 20.7711C113.774 19.9485 113.542 19.0361 113.542 18.0337C113.542 17.0184 113.774 16.0995 114.237 15.2769C114.7 14.4543 115.338 13.8086 116.151 13.3395C116.963 12.8704 117.871 12.6359 118.874 12.6359C119.864 12.6359 120.765 12.8704 121.577 13.3395C122.39 13.8086 123.028 14.4543 123.491 15.2769C123.954 16.0995 124.186 17.0184 124.186 18.0337C124.186 19.0361 123.954 19.9485 123.491 20.7711C123.028 21.5937 122.39 22.2394 121.577 22.7086C120.765 23.1777 119.864 23.4121 118.874 23.4121ZM118.874 22.3326C119.661 22.3326 120.372 22.1462 121.006 21.7736C121.641 21.4009 122.139 20.8868 122.501 20.2314C122.863 19.5759 123.044 18.8433 123.044 18.0337C123.044 17.224 122.863 16.4914 122.501 15.836C122.139 15.1806 121.641 14.6632 121.006 14.2841C120.372 13.905 119.661 13.7154 118.874 13.7154C118.087 13.7154 117.376 13.905 116.741 14.2841C116.106 14.6632 115.605 15.1806 115.237 15.836C114.868 16.4914 114.684 17.224 114.684 18.0337C114.684 18.8433 114.868 19.5759 115.237 20.2314C115.605 20.8868 116.106 21.4009 116.741 21.7736C117.376 22.1462 118.087 22.3326 118.874 22.3326Z" fill="#7F43D6"/>
<path d="M127.252 23.6051C126.973 23.6051 126.741 23.5119 126.557 23.3256C126.373 23.1392 126.281 22.9047 126.281 22.6219C126.281 22.3521 126.376 22.1239 126.566 21.9376C126.757 21.7513 126.985 21.6581 127.252 21.6581C127.518 21.6581 127.744 21.7513 127.928 21.9376C128.112 22.1239 128.204 22.3521 128.204 22.6219C128.204 22.8919 128.112 23.1231 127.928 23.3159C127.744 23.5087 127.518 23.6051 127.252 23.6051Z" fill="#7F43D6"/>
<path d="M135.478 23.4123C134.5 23.4123 133.618 23.1778 132.831 22.7087C132.044 22.2396 131.425 21.5938 130.975 20.7713C130.524 19.9487 130.299 19.0362 130.299 18.0338C130.299 17.0185 130.508 16.1029 130.927 15.2867C131.346 14.4706 131.93 13.828 132.679 13.3589C133.428 12.8899 134.265 12.6553 135.192 12.6553C136.005 12.6553 136.747 12.8159 137.42 13.1372C138.093 13.4585 138.677 13.9341 139.172 14.5638C139.261 14.6923 139.305 14.8015 139.305 14.8915C139.305 15.0714 139.216 15.2129 139.039 15.3156C138.95 15.3928 138.848 15.4313 138.734 15.4313C138.556 15.4313 138.41 15.3542 138.296 15.2C137.484 14.2232 136.449 13.7348 135.192 13.7348C134.456 13.7348 133.802 13.918 133.231 14.2843C132.66 14.6505 132.219 15.1614 131.908 15.8169C131.597 16.4723 131.441 17.2113 131.441 18.0338C131.441 18.8435 131.612 19.576 131.955 20.2315C132.298 20.887 132.774 21.401 133.383 21.7737C133.993 22.1464 134.691 22.3328 135.478 22.3328C136.595 22.3328 137.49 22.0179 138.163 21.3882C138.277 21.2725 138.41 21.2147 138.563 21.2147C138.702 21.2147 138.816 21.2596 138.905 21.3496C139.032 21.4653 139.096 21.6066 139.096 21.7737C139.096 21.9151 139.045 22.0308 138.943 22.1207C138.499 22.532 137.979 22.8501 137.382 23.075C136.785 23.2999 136.151 23.4123 135.478 23.4123Z" fill="#7F43D6"/>
<path d="M146.922 23.4121C145.919 23.4121 145.011 23.1777 144.199 22.7086C143.386 22.2394 142.748 21.5937 142.285 20.7711C141.822 19.9485 141.59 19.0361 141.59 18.0337C141.59 17.0184 141.822 16.0995 142.285 15.2769C142.748 14.4543 143.386 13.8086 144.199 13.3395C145.011 12.8704 145.919 12.6359 146.922 12.6359C147.912 12.6359 148.813 12.8704 149.626 13.3395C150.438 13.8086 151.076 14.4543 151.539 15.2769C152.003 16.0995 152.234 17.0184 152.234 18.0337C152.234 19.0361 152.003 19.9485 151.539 20.7711C151.076 21.5937 150.438 22.2394 149.626 22.7086C148.813 23.1777 147.912 23.4121 146.922 23.4121ZM146.922 22.3326C147.709 22.3326 148.42 22.1462 149.054 21.7736C149.689 21.4009 150.187 20.8868 150.549 20.2314C150.911 19.5759 151.092 18.8433 151.092 18.0337C151.092 17.224 150.911 16.4914 150.549 15.836C150.187 15.1806 149.689 14.6632 149.054 14.2841C148.42 13.905 147.709 13.7154 146.922 13.7154C146.135 13.7154 145.424 13.905 144.789 14.2841C144.154 14.6632 143.653 15.1806 143.285 15.836C142.917 16.4914 142.733 17.224 142.733 18.0337C142.733 18.8433 142.917 19.5759 143.285 20.2314C143.653 20.8868 144.154 21.4009 144.789 21.7736C145.424 22.1462 146.135 22.3326 146.922 22.3326Z" fill="#7F43D6"/>
<path d="M166.077 12.6168C166.839 12.6168 167.518 12.8095 168.115 13.1951C168.711 13.5807 169.175 14.1172 169.505 14.8048C169.835 15.4924 170 16.2731 170 17.1471V22.7184C170 22.8855 169.949 23.0237 169.847 23.1329C169.746 23.2421 169.606 23.2967 169.429 23.2967C169.264 23.2967 169.127 23.2421 169.019 23.1329C168.911 23.0237 168.857 22.8855 168.857 22.7184V17.1471C168.857 16.1575 168.597 15.3478 168.077 14.7181C167.556 14.0883 166.89 13.7735 166.077 13.7735C165.189 13.7735 164.471 14.0691 163.926 14.6602C163.38 15.2514 163.119 16.0354 163.145 17.0122V17.1471V22.7184C163.145 22.8855 163.094 23.0237 162.993 23.1329C162.891 23.2421 162.751 23.2967 162.574 23.2967C162.409 23.2967 162.272 23.2421 162.164 23.1329C162.056 23.0237 162.002 22.8855 162.002 22.7184V17.1471C162.002 16.1575 161.742 15.3478 161.222 14.7181C160.701 14.0883 160.035 13.7735 159.222 13.7735C158.346 13.7735 157.629 14.0562 157.071 14.6217C156.512 15.1871 156.233 15.9197 156.233 16.8194V22.7184C156.233 22.8855 156.182 23.0237 156.081 23.1329C155.979 23.2421 155.839 23.2967 155.662 23.2967C155.497 23.2967 155.36 23.2421 155.252 23.1329C155.144 23.0237 155.09 22.8855 155.09 22.7184V13.3301C155.09 13.1501 155.144 13.0088 155.252 12.9059C155.36 12.8031 155.497 12.7517 155.662 12.7517C155.839 12.7517 155.979 12.8031 156.081 12.9059C156.182 13.0088 156.233 13.1501 156.233 13.3301V14.0819C156.588 13.6193 157.026 13.2594 157.547 13.0023C158.067 12.7453 158.626 12.6168 159.222 12.6168C159.959 12.6168 160.619 12.8 161.203 13.1662C161.787 13.5324 162.25 14.037 162.593 14.6795C162.935 14.037 163.411 13.5324 164.021 13.1662C164.63 12.8 165.316 12.6168 166.077 12.6168Z" fill="#7F43D6"/>
<defs>
<linearGradient id="paint0_linear" x1="8.6107" y1="3.84891" x2="8.61078" y2="44.6442" gradientUnits="userSpaceOnUse">
<stop stop-color="#7F43D6"/>
<stop offset="0.6" stop-color="#4844A6"/>
<stop offset="1" stop-color="#114675"/>
</linearGradient>
</defs>
</svg>
