<?xml version="1.0" encoding="UTF-8"?>
<!DOCTYPE svg PUBLIC "-//W3C//DTD SVG 1.1//EN" "http://www.w3.org/Graphics/SVG/1.1/DTD/svg11.dtd">
<!-- Creator: CorelDRAW 2018 (64-Bit) -->
<svg xmlns="http://www.w3.org/2000/svg" xml:space="preserve" width="1.349cm" height="1.349cm" version="1.1" style="shape-rendering:geometricPrecision; text-rendering:geometricPrecision; image-rendering:optimizeQuality; fill-rule:evenodd; clip-rule:evenodd"
viewBox="0 0 1349 1349"
 xmlns:xlink="http://www.w3.org/1999/xlink">
 <defs>
  <style type="text/css">
   <![CDATA[
    .fil0 {fill:#D0D0D0}
   ]]>
  </style>
 </defs>
 <g id="Layer_x0020_1">
  <metadata id="CorelCorpID_0Corel-Layer"/>
  <g id="_2187552975888">
   <path class="fil0" d="M1345.93 633.47c-117.31,-182.37 -277.24,-300.83 -390.75,-368.09 -88.63,-52.51 -162.3,-82.49 -198.04,-95.61 3.99,-10.09 6.21,-21.07 6.21,-32.56 0,-49 -39.87,-88.87 -88.86,-88.87 -49,0 -88.86,39.87 -88.86,88.87 0,11.49 2.22,22.47 6.21,32.57 -35.74,13.11 -109.41,43.09 -198.04,95.61 -113.51,67.25 -273.45,185.71 -390.76,368.08 -8.27,12.86 1.35,30.45 16.62,30.45l22.52 0 0 616.97c0,10.92 8.84,19.76 19.76,19.76l1225.1 0c10.91,0 19.76,-8.84 19.76,-19.76l0 -616.97c0,0 22.49,0 22.51,0 15.35,0 24.93,-17.54 16.62,-30.45zm-671.45 -545.6c27.21,0 49.34,22.13 49.34,49.33 0,62.28 -98.67,64.29 -98.67,0 0,-27.19 22.13,-49.33 49.33,-49.33zm179.15 1173.26l-358.28 0 0 -41.29 29.09 0 300.1 0 29.08 0 0 41.29 0.01 0zm-96.39 -202.91l0 41.28 -165.5 0 0 -41.28 165.5 0zm-165.5 -39.53l0 -166.35c0,-45.63 37.12,-82.75 82.75,-82.75 45.63,0 82.75,37.12 82.75,82.75l0 166.35 -165.5 0zm185.26 120.34l27.77 0 0 41.28 -260.57 0 0 -41.28 27.77 0 205.03 0zm-462.43 -514.63c-10.92,0 -19.76,8.84 -19.76,19.76 0,10.92 8.84,19.76 19.76,19.76l952.7 0 0 597.21 -374.12 0 0 -61.05c0,-10.92 -8.85,-19.76 -19.76,-19.76l-29.09 0 0 -61.05c0,-10.92 -8.85,-19.77 -19.76,-19.77l-27.78 0 0 -247.16c0,-67.42 -54.85,-122.28 -122.27,-122.28 -67.42,0 -122.28,54.86 -122.28,122.28l0 247.16 -27.77 0c-10.92,0 -19.77,8.85 -19.77,19.77l0 61.04 -29.08 0c-10.92,0 -19.76,8.85 -19.76,19.77l0 61.05 -374.13 0 0 -597.21 153.82 0c10.91,0 19.76,-8.84 19.76,-19.76 0,-10.91 -8.85,-19.76 -19.76,-19.76l-178.82 0c110.53,-158.36 253.18,-263.22 356.23,-324.41 95.04,-56.43 173.82,-86.55 202.29,-96.57 1.01,-0.36 16.06,11.51 18.38,12.7 32.23,16.69 73.14,11.57 100.16,-12.71 28.33,9.96 106.47,39.81 201.27,95.98 103.37,61.25 246.45,166.25 357.25,325.01l-977.71 0z"/>
   <path class="fil0" d="M436.95 936.7l0 -147.71c0,-10.92 -8.85,-19.77 -19.77,-19.77l-242.03 0c-10.91,0.01 -19.76,8.85 -19.76,19.77l0 147.71c-8.52,2.2 -14.83,9.91 -14.83,19.12l0 80.81c0,10.92 8.85,19.76 19.77,19.76l271.68 0c10.91,0 19.76,-8.84 19.76,-19.76l0 -80.81c0,-9.21 -6.3,-16.92 -14.82,-19.12zm-242.03 -127.95l202.5 0 0 127.31 -202.5 -0.01 0 -127.3zm217.32 208.12l-232.15 0 0 -41.29 232.15 0 0 41.29 0 0z"/>
   <path class="fil0" d="M1193.58 936.7l0 -147.71c0,-10.92 -8.84,-19.77 -19.76,-19.77l-242.03 0c-10.91,0 -19.76,8.85 -19.76,19.77l0 147.71c-8.52,2.2 -14.83,9.91 -14.83,19.12l0 80.81c0,10.92 8.85,19.76 19.77,19.76l271.68 0c10.91,0 19.76,-8.84 19.76,-19.76l0 -80.81c0,-9.21 -6.31,-16.92 -14.83,-19.12zm-242.02 -127.95l202.5 0 0 127.31 -202.5 -0.01 0 -127.3zm217.32 208.12l-232.15 0 0 -41.29 232.15 0 0 41.29z"/>
  </g>
 </g>
</svg>
