<?xml version="1.0" encoding="UTF-8"?>
<!DOCTYPE svg PUBLIC "-//W3C//DTD SVG 1.1//EN" "http://www.w3.org/Graphics/SVG/1.1/DTD/svg11.dtd">
<!-- Creator: CorelDRAW 2018 (64-Bit) -->
<svg xmlns="http://www.w3.org/2000/svg" xml:space="preserve" width="1.349cm" height="1.349cm" version="1.1" style="shape-rendering:geometricPrecision; text-rendering:geometricPrecision; image-rendering:optimizeQuality; fill-rule:evenodd; clip-rule:evenodd"
viewBox="0 0 1349 1349"
 xmlns:xlink="http://www.w3.org/1999/xlink">
 <defs>
  <style type="text/css">
   <![CDATA[
    .fil0 {fill:#D0D0D0}
   ]]>
  </style>
 </defs>
 <g id="Layer_x0020_1">
  <metadata id="CorelCorpID_0Corel-Layer"/>
  <path class="fil0" d="M1348.91 498.35c-0.01,-0.19 -0.02,-0.38 -0.04,-0.57 -0.04,-0.4 -0.12,-0.78 -0.18,-1.17 -0.05,-0.26 -0.08,-0.54 -0.13,-0.8 -0.06,-0.27 -0.13,-0.51 -0.2,-0.77 -0.1,-0.38 -0.18,-0.75 -0.3,-1.12 -0.04,-0.12 -0.09,-0.22 -0.12,-0.33 -0.38,-1.11 -0.83,-2.17 -1.38,-3.17 -0.05,-0.11 -0.12,-0.2 -0.17,-0.29 -0.26,-0.44 -0.52,-0.89 -0.81,-1.31 -0.28,-0.44 -0.61,-0.86 -0.95,-1.29 -0.05,-0.06 -0.11,-0.14 -0.16,-0.2 -0.74,-0.9 -1.56,-1.72 -2.46,-2.48 -0.08,-0.07 -0.15,-0.15 -0.23,-0.22 -0.3,-0.23 -0.62,-0.46 -0.93,-0.69 -0.22,-0.16 -0.42,-0.33 -0.65,-0.47 -0.21,-0.14 -0.45,-0.28 -0.68,-0.41 -0.34,-0.22 -0.68,-0.42 -1.04,-0.62 -0.16,-0.08 -0.33,-0.15 -0.49,-0.24 -0.44,-0.21 -0.88,-0.42 -1.33,-0.6 -0.03,-0.02 -0.06,-0.03 -0.1,-0.06l-642.31 -256.92 0 -38.4 161.78 -60.66c7.71,-2.89 12.83,-10.26 12.83,-18.5 0,-8.24 -5.12,-15.61 -12.83,-18.5l-161.78 -60.67 0 -8.13c0,-10.91 -8.84,-19.76 -19.76,-19.76 -10.91,0 -19.76,8.85 -19.76,19.76l0 204.86 -642.31 256.93c-0.04,0.01 -0.07,0.03 -0.11,0.06 -0.43,0.17 -0.86,0.38 -1.29,0.58 -0.17,0.09 -0.36,0.17 -0.53,0.26 -0.34,0.18 -0.67,0.39 -1,0.59 -0.24,0.14 -0.48,0.27 -0.72,0.43 -0.2,0.14 -0.39,0.3 -0.6,0.44 -0.33,0.24 -0.66,0.47 -0.97,0.73 -0.07,0.05 -0.12,0.11 -0.19,0.17 -0.91,0.77 -1.75,1.61 -2.49,2.52 -0.05,0.05 -0.09,0.11 -0.14,0.17 -0.35,0.42 -0.68,0.87 -0.98,1.32 -0.29,0.42 -0.55,0.86 -0.81,1.31 -0.05,0.1 -0.11,0.19 -0.17,0.28 -0.56,1.03 -1.02,2.11 -1.39,3.24 -0.03,0.08 -0.07,0.17 -0.1,0.26 -0.13,0.37 -0.22,0.78 -0.31,1.16 -0.06,0.24 -0.14,0.49 -0.19,0.73 -0.06,0.27 -0.09,0.56 -0.14,0.84 -0.06,0.37 -0.14,0.75 -0.17,1.13 -0.03,0.2 -0.03,0.41 -0.05,0.62 -0.03,0.46 -0.06,0.92 -0.06,1.38 0,0.04 -0.01,0.08 -0.01,0.12l0 174.6c0,0.19 0.02,0.38 0.03,0.57 0.01,0.36 0.02,0.72 0.05,1.08 0.03,0.3 0.06,0.61 0.11,0.91 0.04,0.34 0.09,0.67 0.15,1 0.06,0.32 0.12,0.63 0.2,0.94 0.07,0.31 0.15,0.62 0.24,0.93 0.09,0.32 0.19,0.62 0.29,0.93 0.1,0.3 0.21,0.61 0.33,0.9 0.11,0.3 0.24,0.59 0.37,0.89 0.13,0.29 0.28,0.59 0.43,0.87 0.15,0.29 0.3,0.57 0.46,0.85 0.16,0.28 0.33,0.54 0.5,0.82 0.19,0.28 0.37,0.56 0.57,0.82 0.17,0.25 0.36,0.5 0.55,0.74 0.23,0.28 0.45,0.56 0.69,0.83 0.14,0.14 0.25,0.3 0.37,0.44l81.84 87.3c3.74,3.98 8.96,6.24 14.42,6.24 5.47,0 10.69,-2.26 14.42,-6.24l4.02 -4.28 0 538.44 -2.06 0.01c-10.92,0 -19.76,8.85 -19.76,19.76 0,10.91 8.84,19.76 19.76,19.76l130.95 0c10.9,0 19.76,-8.85 19.76,-19.76 0,-10.91 -8.86,-19.76 -19.76,-19.76l-2.06 0 0 -538.45 4 4.28c3.74,3.98 8.95,6.25 14.42,6.25 5.46,0 10.68,-2.27 14.42,-6.25l67.42 -71.92 67.42 71.92c3.74,3.98 8.96,6.25 14.42,6.25 5.46,0 10.68,-2.27 14.41,-6.25l67.44 -71.92 67.42 71.92c3.74,3.98 8.95,6.25 14.42,6.25 5.45,0 10.67,-2.27 14.41,-6.25l67.42 -71.92 67.42 71.92c3.74,3.98 8.96,6.25 14.42,6.25 5.47,0 10.69,-2.27 14.42,-6.25l67.42 -71.92 67.43 71.92c3.73,3.98 8.95,6.25 14.42,6.25 5.46,0 10.68,-2.27 14.42,-6.25l67.42 -71.91 67.42 71.91c3.74,3.99 8.96,6.25 14.42,6.25 5.47,0 10.68,-2.26 14.42,-6.24l4.01 -4.28 0 538.44 -2.05 0c-10.92,0 -19.76,8.85 -19.76,19.76 0,10.91 8.84,19.76 19.76,19.76l130.94 0c10.91,0 19.76,-8.85 19.76,-19.76 0,-10.91 -8.85,-19.76 -19.76,-19.76l-2.05 0 0 -538.44 4 4.27c3.74,3.98 8.95,6.25 14.42,6.25 5.46,0 10.68,-2.27 14.42,-6.25l81.84 -87.3c0.13,-0.13 0.24,-0.28 0.37,-0.42 0.24,-0.28 0.48,-0.55 0.71,-0.85 0.19,-0.23 0.36,-0.47 0.54,-0.71 0.19,-0.28 0.4,-0.57 0.58,-0.86 0.17,-0.25 0.33,-0.52 0.48,-0.78 0.17,-0.3 0.34,-0.6 0.49,-0.89 0.13,-0.27 0.27,-0.55 0.39,-0.83 0.15,-0.31 0.28,-0.62 0.4,-0.93 0.12,-0.28 0.22,-0.57 0.31,-0.85 0.11,-0.33 0.22,-0.66 0.32,-0.99 0.07,-0.28 0.15,-0.57 0.22,-0.86 0.08,-0.34 0.15,-0.67 0.21,-1.02 0.05,-0.3 0.09,-0.61 0.13,-0.91 0.06,-0.32 0.1,-0.66 0.12,-0.99 0.03,-0.33 0.04,-0.66 0.05,-0.98 0.01,-0.22 0.03,-0.42 0.03,-0.64l0 -174.59c0,-0.04 -0.01,-0.09 -0.01,-0.12 -0.01,-0.48 -0.04,-0.96 -0.08,-1.44l0 0zm-556.1 -391.29l-98.56 36.96 0 -73.92 98.56 36.96zm-118.32 194.35c10.92,0 19.76,-8.85 19.76,-19.76l0 -14.46 532.37 212.96 -858.64 0c-10.91,0 -19.76,8.84 -19.76,19.76 0,10.91 8.85,19.76 19.76,19.76l941.49 0 0 135.06 -1269.95 0 0 -135.06 246.79 0c10.91,0 19.76,-8.85 19.76,-19.76 0,-10.92 -8.85,-19.76 -19.76,-19.76l-163.95 0 532.37 -212.97 0 14.47c0,10.91 8.85,19.76 19.76,19.76l0 0zm-572.88 431.49l-36.24 -38.65 72.46 0 -36.22 38.65zm105.73 576.58l-47.79 0 0 -580.61 23.9 -25.48 23.88 25.48 0.01 580.61zm57.94 -576.58l-36.23 -38.65 72.47 0 -36.24 38.65zm163.68 0l-36.22 -38.65 72.46 0 -36.24 38.65zm163.69 0l-36.23 -38.65 72.46 0 -36.23 38.65zm163.68 0l-36.22 -38.65 72.45 0 -36.23 38.65zm163.69 0l-36.24 -38.65 72.47 0 -36.23 38.65zm163.68 0l-36.24 -38.65 72.47 0 -36.23 38.65zm105.73 576.58l-47.78 0 0 -580.61 23.89 -25.48 23.89 25.49 0 580.6zm57.95 -576.58l-36.23 -38.65 72.47 0 -36.24 38.65zm0 0z"/>
 </g>
</svg>
