<?xml version="1.0" encoding="UTF-8"?>
<!DOCTYPE svg PUBLIC "-//W3C//DTD SVG 1.1//EN" "http://www.w3.org/Graphics/SVG/1.1/DTD/svg11.dtd">
<!-- Creator: CorelDRAW 2018 (64-Bit) -->
<svg xmlns="http://www.w3.org/2000/svg" xml:space="preserve" width="1.349cm" height="1.349cm" version="1.1" style="shape-rendering:geometricPrecision; text-rendering:geometricPrecision; image-rendering:optimizeQuality; fill-rule:evenodd; clip-rule:evenodd"
viewBox="0 0 1349 1349"
 xmlns:xlink="http://www.w3.org/1999/xlink"
 enable-background="new 0 0 470.004 470.004">
 <defs>
  <style type="text/css">
   <![CDATA[
    .fil0 {fill:#D0D0D0}
   ]]>
  </style>
 </defs>
 <g id="Layer_x0020_1">
  <metadata id="CorelCorpID_0Corel-Layer"/>
  <g id="_2187606874576">
   <path class="fil0" d="M14.3 41.81c31.17,11.11 62.56,21.4 94.17,30.89l75.34 332.21c1.86,8.18 8.31,14.55 16.52,16.29 1.49,0.32 2.99,0.47 4.48,0.47 6.7,0 13.12,-3.13 17.24,-8.64l204.14 -273.1c26.09,3.29 52.28,6.08 78.54,8.32l0 301.26c0,8.22 4.68,15.72 12.05,19.33 7.38,3.62 16.16,2.72 22.66,-2.31l135.06 -104.59 135.07 104.59c3.84,2.98 8.49,4.51 13.18,4.51 3.22,0 6.47,-0.72 9.47,-2.2 7.38,-3.61 12.05,-11.11 12.05,-19.33l0 -301.26c26.27,-2.24 52.45,-5.03 78.54,-8.32l204.15 273.1c4.11,5.51 10.54,8.64 17.24,8.64 1.49,0 2.98,-0.15 4.48,-0.47 8.21,-1.74 14.65,-8.11 16.51,-16.29l29.6 -130.49c2.63,-11.6 -4.64,-23.13 -16.23,-25.75 -11.6,-2.63 -23.13,4.63 -25.76,16.23l-19.28 85.01 -162 -216.73c74.83,-11.34 148.84,-26.99 221.79,-46.92l-21.47 94.66c-2.63,11.6 4.64,23.13 16.24,25.76 1.6,0.36 3.2,0.53 4.78,0.53 9.83,0 18.7,-6.77 20.97,-16.77l26.71 -117.74c31.6,-9.49 63,-19.78 94.16,-30.89 11.19,-4 17.03,-16.31 13.04,-27.51 -4,-11.2 -16.3,-17.04 -27.51,-13.04 -32.99,11.77 -66.26,22.6 -99.76,32.51 -2.78,0.26 -5.46,1.04 -7.89,2.3 -91.96,26.78 -185.72,46.57 -280.77,59.27 -1.55,0.04 -3.09,0.24 -4.61,0.62 -35.36,4.64 -70.91,8.31 -106.61,10.99 -48.48,3.64 -97.18,5.47 -146.09,5.47 -48.91,0 -97.6,-1.83 -146.02,-5.46 -35.77,-2.68 -71.31,-6.36 -106.68,-11 -1.52,-0.38 -3.07,-0.58 -4.61,-0.62 -95.04,-12.71 -188.8,-32.49 -280.75,-59.27 -2.44,-1.26 -5.13,-2.06 -7.93,-2.31 -33.5,-9.9 -66.75,-20.73 -99.74,-32.5 -11.2,-4 -23.51,1.85 -27.51,13.05 -4,11.19 1.85,23.51 13.04,27.5l0 0zm201.19 308.1l-59.8 -263.65c72.95,19.93 146.97,35.58 221.8,46.92l-162 216.73 0 0zm585.73 -198.45l0 254.16 -113.54 -87.93c-7.76,-6.01 -18.6,-6.01 -26.36,0l-113.54 87.93 0 -254.16c42.06,2.67 84.31,4.01 126.71,4.01 42.41,0 84.67,-1.34 126.73,-4.01z"/>
   <path class="fil0" d="M1320.23 440.24c-33,11.77 -66.27,22.6 -99.78,32.51 -0.83,0.08 -1.66,0.19 -2.5,0.37 -1.89,0.4 -3.66,1.07 -5.31,1.91 -91.98,26.78 -185.76,46.57 -280.83,59.29 -1.28,0.03 -2.57,0.17 -3.86,0.44 -0.18,0.04 -0.35,0.1 -0.53,0.15 -35.15,4.61 -70.49,8.28 -105.97,10.95 -0.09,0.01 -0.18,0.02 -0.26,0.02 -48.64,3.67 -97.55,5.51 -146.69,5.51 -49.13,0 -98.05,-1.84 -146.69,-5.51 -0.09,0 -0.17,-0.01 -0.26,-0.02 -35.48,-2.67 -70.81,-6.34 -105.97,-10.95 -0.18,-0.05 -0.35,-0.11 -0.53,-0.15 -1.28,-0.27 -2.57,-0.4 -3.83,-0.44 -95.08,-12.71 -188.87,-32.51 -280.86,-59.29 -1.65,-0.84 -3.42,-1.51 -5.31,-1.91 -0.84,-0.18 -1.67,-0.29 -2.49,-0.37 -33.51,-9.91 -66.79,-20.74 -99.8,-32.52 -11.2,-4 -23.51,1.85 -27.5,13.05 -4,11.2 1.84,23.51 13.04,27.5 28.81,10.28 57.82,19.83 87,28.73l-62.55 294.31c-1.71,8.04 1.3,16.34 7.76,21.41 6.47,5.08 15.25,6.03 22.65,2.46l153.85 -74.23 110.37 130.39c4.14,4.9 10.19,7.62 16.43,7.62 1.74,0 3.51,-0.21 5.25,-0.65 7.97,-2 14.1,-8.37 15.81,-16.4l62.62 -294.61c26.08,3.19 52.25,5.86 78.5,8l142.96 309.7c3.52,7.63 11.15,12.51 19.55,12.51 8.39,0 16.03,-4.88 19.55,-12.51l142.95 -309.7c26.26,-2.15 52.43,-4.81 78.51,-8l62.62 294.61c1.71,8.04 7.84,14.4 15.81,16.4 1.74,0.44 3.5,0.65 5.25,0.65 6.24,0 12.28,-2.72 16.43,-7.62l110.36 -130.39 153.86 74.23c7.4,3.57 16.18,2.62 22.64,-2.45 6.46,-5.07 9.48,-13.38 7.77,-21.41l-62.56 -294.32c29.19,-8.89 58.2,-18.45 87,-28.72 11.2,-4 17.04,-16.31 13.05,-27.51 -4,-11.2 -16.31,-17.04 -27.51,-13.04l0 0zm-982.35 382.29l-92.77 -109.61c-6.34,-7.49 -16.95,-9.75 -25.79,-5.48l-129.33 62.4 52.75 -248.21c81.42,22.84 164.18,40.35 247.94,52.47l-52.8 248.43zm336.62 14.6l-113.52 -245.93c37.69,2.15 75.54,3.25 113.52,3.25 37.97,0 75.82,-1.1 113.52,-3.25l-113.52 245.93zm584.51 -67.29l-129.33 -62.4c-8.84,-4.27 -19.44,-2.01 -25.78,5.48l-92.78 109.61 -52.81 -248.43c83.77,-12.11 166.53,-29.62 247.95,-52.47l52.75 248.21z"/>
   <path class="fil0" d="M1320.23 879.21c-33,11.77 -66.26,22.6 -99.77,32.52 -2.78,0.25 -5.45,1.04 -7.87,2.29 -91.97,26.78 -185.74,46.57 -280.8,59.28 -1.53,0.04 -3.06,0.23 -4.57,0.61 -35.38,4.64 -70.93,8.32 -106.63,11 -48.48,3.63 -97.18,5.46 -146.09,5.46 -48.91,0 -97.6,-1.83 -146.02,-5.46 -35.77,-2.68 -71.32,-6.36 -106.7,-11 -1.5,-0.38 -3.04,-0.57 -4.57,-0.61 -95.05,-12.71 -188.81,-32.5 -280.78,-59.27 -2.43,-1.26 -5.12,-2.06 -7.91,-2.31 -33.5,-9.91 -66.76,-20.74 -99.75,-32.5 -11.2,-4 -23.51,1.85 -27.51,13.04 -3.99,11.2 1.85,23.51 13.05,27.51 31.16,11.11 62.56,21.39 94.16,30.89l75.35 332.2c1.86,8.19 8.3,14.55 16.52,16.3 1.49,0.32 2.99,0.47 4.48,0.47 6.7,0 13.12,-3.14 17.23,-8.64l204.15 -273.1c26.09,3.29 52.27,6.07 78.54,8.32l0 97.64c0,11.89 9.63,21.53 21.52,21.53 11.89,0 21.53,-9.64 21.53,-21.53l0 -94.43c42.06,2.67 84.31,4.01 126.71,4.01 42.41,0 84.67,-1.34 126.72,-4.01l0 254.16 -113.54 -87.93c-7.76,-6.01 -18.6,-6.01 -26.36,0l-113.54 87.93 0 -73.62c0,-11.89 -9.63,-21.53 -21.52,-21.53 -11.89,0 -21.53,9.64 -21.53,21.53l0 117.51c0,8.22 4.68,15.71 12.05,19.33 7.38,3.62 16.17,2.72 22.66,-2.31l135.06 -104.59 135.07 104.59c3.84,2.98 8.49,4.51 13.18,4.51 3.23,0 6.47,-0.72 9.47,-2.2 7.38,-3.62 12.05,-11.11 12.05,-19.33l0 -301.27c26.27,-2.25 52.45,-5.03 78.54,-8.32l204.15 273.1c4.11,5.51 10.54,8.64 17.24,8.64 1.49,0 2.98,-0.15 4.48,-0.47 8.21,-1.75 14.66,-8.11 16.52,-16.29l75.34 -332.21c31.6,-9.49 63,-19.78 94.16,-30.89 11.2,-4 17.04,-16.31 13.04,-27.51 -4,-11.19 -16.3,-17.04 -27.51,-13.04l0 0zm-1104.74 348.65l-59.8 -263.65c72.95,19.93 146.97,35.58 221.8,46.92l-162 216.73zm918.02 0l-162 -216.73c74.83,-11.34 148.85,-26.99 221.8,-46.92l-59.8 263.65z"/>
  </g>
 </g>
</svg>
