<?xml version="1.0" encoding="UTF-8"?>
<!DOCTYPE svg PUBLIC "-//W3C//DTD SVG 1.1//EN" "http://www.w3.org/Graphics/SVG/1.1/DTD/svg11.dtd">
<!-- Creator: CorelDRAW 2018 (64-Bit) -->
<svg xmlns="http://www.w3.org/2000/svg" xml:space="preserve" width="1.349cm" height="1.349cm" version="1.1" style="shape-rendering:geometricPrecision; text-rendering:geometricPrecision; image-rendering:optimizeQuality; fill-rule:evenodd; clip-rule:evenodd"
viewBox="0 0 1349 1349"
 xmlns:xlink="http://www.w3.org/1999/xlink"
 enable-background="new 0 0 470.004 470.004">
 <defs>
  <style type="text/css">
   <![CDATA[
    .fil0 {fill:#D0D0D0}
   ]]>
  </style>
 </defs>
 <g id="Layer_x0020_1">
  <metadata id="CorelCorpID_0Corel-Layer"/>
  <g id="_2187553001296">
   <path class="fil0" d="M421 782.36c11.17,0.02 20.65,-8.16 22.27,-19.21 1.63,-11.05 -5.1,-21.61 -15.79,-24.81 -46.45,-13.93 -96.88,-64.92 -138.4,-139.83 -6.02,-10.87 -19.7,-14.8 -30.57,-8.78 -10.86,6.01 -14.79,19.7 -8.78,30.56 47.22,85.09 107.24,143.89 164.79,161.1 2.1,0.64 4.29,0.97 6.48,0.97l0 0zm0 0z"/>
   <path class="fil0" d="M653.17 282.74c13.91,31.31 21.17,65.18 21.33,99.45 0,12.42 10.07,22.48 22.48,22.48 12.42,0 22.48,-10.07 22.48,-22.48 -0.15,-40.43 -8.68,-80.39 -25.04,-117.36 -20.83,-48.75 -54.05,-91.22 -96.36,-123.2 -9.93,-7.44 -24.01,-5.43 -31.47,4.5 -7.45,9.94 -5.43,24.03 4.49,31.48 36.07,27.28 64.36,63.52 82.09,105.13l0 0zm0 0z"/>
   <path class="fil0" d="M449.69 134.89c20.49,0.08 40.83,3.54 60.21,10.23 11.75,4 24.53,-2.29 28.53,-14.05 3.99,-11.75 -2.3,-24.53 -14.06,-28.53 -24.04,-8.28 -49.26,-12.53 -74.68,-12.61 -12.42,0 -22.49,10.07 -22.49,22.48 0,12.42 10.07,22.48 22.49,22.48l0 0zm0 0z"/>
   <path class="fil0" d="M877.11 918.27c-46.45,-13.94 -96.88,-64.93 -138.4,-139.84 -6.02,-10.87 -19.7,-14.8 -30.56,-8.79 -10.87,6.02 -14.8,19.71 -8.79,30.58 47.22,85.08 107.24,143.88 164.8,161.09 7.73,2.47 16.2,0.57 22.14,-4.96 5.94,-5.54 8.43,-13.85 6.53,-21.73 -1.9,-7.89 -7.92,-14.15 -15.72,-16.35l0 0zm0 0z"/>
   <path class="fil0" d="M1047.7 321.49c-9.94,-7.45 -24.02,-5.44 -31.48,4.5 -7.45,9.93 -5.43,24.03 4.49,31.47 36.03,27.26 64.32,63.45 82.05,104.99 13.94,31.36 21.22,65.28 21.37,99.59 0,12.42 10.07,22.48 22.48,22.48 12.42,0 22.48,-10.06 22.48,-22.48 -0.15,-40.43 -8.68,-80.38 -25.04,-117.36 -20.83,-48.75 -54.05,-91.22 -96.35,-123.19l0 0zm0 0z"/>
   <path class="fil0" d="M974.01 282.39c-24.04,-8.27 -49.27,-12.53 -74.69,-12.61 -12.42,0 -22.49,10.07 -22.49,22.48 0,12.42 10.07,22.48 22.49,22.48 20.49,0.08 40.83,3.54 60.21,10.23 11.75,4 24.53,-2.29 28.53,-14.05 3.99,-11.75 -2.3,-24.53 -14.05,-28.53l0 0zm0 0z"/>
   <path class="fil0" d="M899.01 179.86l-0.36 0c-45.35,0.21 -90.14,9.96 -131.46,28.64 -57.79,-124.04 -180.72,-204.75 -317.51,-208.5 -191.6,0 -359.7,178.59 -359.7,382.19 0,176.1 120.86,415.46 279.65,478.23l-9.55 57.64c-1.09,6.52 0.75,13.18 5.02,18.22 4.26,5.04 10.54,7.95 17.14,7.95l36.25 0 -14.24 42.71c-15.5,46.09 -8.68,96.79 18.46,137.14l16.7 25.04c19.34,28.83 24.19,65.01 13.13,97.92l-24.1 72.34c-3.93,11.8 2.46,24.53 14.25,28.46 11.8,3.92 24.55,-2.46 28.47,-14.26l23.96 -72.36c15.51,-46.09 8.69,-96.79 -18.45,-137.14l-16.71 -25.04c-19.37,-28.83 -24.23,-65.01 -13.15,-97.92l19.07 -56.89 51.25 0c6.61,0 12.88,-2.91 17.15,-7.95 4.27,-5.04 6.1,-11.7 5.02,-18.22l-9.56 -57.6c27.42,-11.01 53.01,-26.12 75.9,-44.81 47.21,94.77 121.72,188.51 213.57,224.94l-9.5 57.32c-1.09,6.52 0.75,13.18 5.02,18.22 4.26,5.04 10.54,7.95 17.14,7.95l36.25 0 -14.24 42.71c-15.5,46.1 -8.68,96.79 18.46,137.14l16.68 25c1.8,2.7 3.47,5.49 5.02,8.3 3.94,7.23 11.52,11.72 19.76,11.71 3.75,0 7.44,-0.96 10.72,-2.77 10.9,-5.94 14.93,-19.58 8.99,-30.48 -2.25,-3.95 -4.49,-7.85 -7.06,-11.67l-16.69 -25.04c-19.38,-28.81 -24.23,-65.01 -13.17,-97.91l18.92 -56.99 51.25 0c6.61,0 12.88,-2.91 17.15,-7.95 4.27,-5.04 6.1,-11.7 5.02,-18.22l-9.45 -56.92c64.4,-25.14 125.66,-80.2 177.62,-161.29 62.03,-94.99 97.24,-204.99 101.92,-318.35 -0.47,-203.35 -168.61,-381.49 -360.01,-381.49l0 0zm-764.07 202.33c0,-179.65 147.08,-337.22 314.75,-337.22 120.7,0 232.96,79.29 286.03,202.08 18.79,42.59 28.56,88.6 28.71,135.14 -0.05,16.54 -1.13,33.05 -3.26,49.46 -2.61,19.63 -6.36,39.09 -11.24,58.29 -25.12,103.12 -77.67,197.53 -152.06,273.22 -28.07,27.97 -62.29,48.98 -99.92,61.37 -23.45,7.28 -48.24,9.16 -72.52,5.49 -8.18,-1.24 -16.25,-3.08 -24.17,-5.51 -147.5,-44.39 -266.32,-278.21 -266.32,-442.32l0 0zm273.83 517.07l4.27 -25.78c1.33,0.24 2.64,0.32 3.96,0.54 1.32,0.23 3.28,0.42 4.92,0.64 9.08,1.33 18.24,2.04 27.41,2.12l0.72 0c9.16,-0.07 18.31,-0.78 27.39,-2.08 1.63,-0.23 3.3,-0.39 4.94,-0.66 1.64,-0.27 2.63,-0.29 3.96,-0.54l4.27 25.76 -81.84 0zm531.47 179.86l-81.84 0 4.27 -25.79c2.54,0.45 5.09,0.67 7.6,1.03 2.12,0.3 4.2,0.61 6.32,0.86 7.54,0.88 15.13,1.35 22.73,1.42l0.61 -0.01c12.05,-0.03 24.1,-1.12 35.96,-3.23l4.35 25.72zm179.08 -223.7c-50.73,79.09 -111.87,131.24 -172.94,149.19 -7.07,2.11 -14.27,3.75 -21.56,4.9l-3.02 0.43c-14.99,2.13 -30.2,2.13 -45.19,0 -1.88,-0.27 -3.7,-0.72 -5.57,-1.06 -6.15,-1.04 -12.24,-2.42 -18.24,-4.13 -91.25,-26.13 -166.74,-123.96 -212.35,-220.32 1.34,-1.35 2.62,-2.87 3.93,-4.25 2.81,-2.95 5.57,-5.96 8.34,-8.99 3.28,-3.63 6.53,-7.32 9.76,-11.08 2.73,-3.22 5.41,-6.48 8.09,-9.81 3.15,-3.86 6.25,-7.8 9.31,-11.82 2.63,-3.47 5.25,-6.97 7.81,-10.53 3.01,-4.08 5.93,-8.23 8.78,-12.42 2.54,-3.69 5.03,-7.4 7.5,-11.24 2.81,-4.27 5.56,-8.62 8.28,-13 2.41,-3.86 4.79,-7.76 7.13,-11.71 2.63,-4.5 5.19,-8.99 7.71,-13.49 2.24,-4.08 4.49,-8.12 6.74,-12.21 2.45,-4.5 4.81,-9.22 7.15,-13.84 2.12,-4.19 4.2,-8.35 6.23,-12.55 2.24,-4.74 4.49,-9.52 6.61,-14.28 1.91,-4.25 3.84,-8.48 5.69,-12.75 2.06,-4.83 4.02,-9.71 6,-14.59 1.7,-4.29 3.46,-8.56 5.1,-12.86 1.86,-4.94 3.6,-9.89 5.35,-14.85 1.53,-4.3 3.08,-8.6 4.5,-12.91 1.66,-5.04 3.17,-10.05 4.7,-15.11 1.3,-4.25 2.63,-8.49 3.85,-12.74 1.43,-5.11 2.7,-10.21 3.99,-15.34 1.07,-4.16 2.25,-8.32 3.15,-12.48 1.22,-5.24 2.25,-10.41 3.28,-15.6 0.82,-4 1.72,-8.02 2.43,-12.01 0.97,-5.43 1.71,-10.79 2.5,-16.16 0.54,-3.68 1.21,-7.39 1.66,-11.06 0.75,-5.93 1.22,-11.78 1.71,-17.62 0.27,-3.02 0.65,-6.07 0.86,-9 0.56,-8.76 0.87,-17.44 0.87,-25.96 0,-12.21 -0.72,-24.39 -1.91,-36.51 -0.41,-4.01 -1.12,-7.98 -1.64,-11.97 -1.07,-8.13 -2.25,-16.25 -3.84,-24.31 -0.92,-4.66 -2.1,-9.29 -3.19,-13.92 -1.78,-7.42 -3.69,-14.8 -5.9,-22.14 -1.44,-4.73 -2.99,-9.45 -4.61,-14.15 -1.14,-3.35 -2.02,-6.74 -3.26,-10.05 35.72,-16 74.42,-24.29 113.56,-24.3l0.32 0c167.46,0 314.74,157.22 315.07,336.6 -4.56,104.73 -37.28,206.3 -94.74,294l0 0zm0 0z"/>
  </g>
 </g>
</svg>
