<svg width="22" height="49" viewBox="0 0 22 49" fill="none" xmlns="http://www.w3.org/2000/svg">
<path fill-rule="evenodd" clip-rule="evenodd" d="M7.57733 6.35394C7.167 5.51975 6.72921 4.71095 6.26726 3.93681C5.43092 2.53202 4.37352 1.05523 3.49329 0C4.96236 1.93885 6.3446 4.05263 7.47862 6.38464C6.83246 6.57654 6.20366 6.8416 5.60345 7.19875C-0.082219 10.5634 -1.32516 17.3364 2.66862 22.5513C3.50135 23.6324 4.4651 24.5568 5.4587 25.3983C6.00552 25.859 6.56308 26.2926 7.12559 26.7078C6.90288 27.0328 6.67242 27.3529 6.43505 27.665C6.20727 27.9652 5.97444 28.2602 5.73965 28.5506C4.757 29.762 3.7253 30.9164 2.7949 32.1373C2.33285 32.7491 1.88566 33.3724 1.50621 34.0329C1.30229 34.3561 1.14204 34.7014 0.964862 35.0387C0.88381 35.2099 0.814319 35.3875 0.738325 35.5619C0.659131 35.7349 0.590058 35.9123 0.533993 36.0945C0.260065 36.8082 0.118607 37.5591 0.0422001 38.3181C-0.0360649 39.0793 -0.00126782 39.8529 0.111896 40.6132C0.156708 40.9982 0.255827 41.3697 0.338739 41.7482C0.453349 42.1163 0.554433 42.4892 0.705284 42.8465C0.986542 43.5663 1.34246 44.2625 1.78819 44.898C2.65675 46.1846 3.85643 47.2599 5.25911 47.9584C8.06498 49.36 11.5075 49.3411 14.3368 47.9379C15.7524 47.2395 16.9999 46.1627 17.906 44.872C18.1485 44.5586 18.3356 44.2121 18.5443 43.8775C18.7175 43.5251 18.9147 43.1823 19.0545 42.8168C19.3715 42.0975 19.5863 41.3415 19.7425 40.5789C20.0097 39.1731 20.0405 37.6923 19.7215 36.2464C19.4142 34.7876 18.7865 33.427 17.9647 32.2331C17.1476 31.0327 16.1631 29.991 15.1249 29.0753C14.0862 28.1575 12.9969 27.3401 11.9117 26.5777C11.0593 25.9727 10.2095 25.405 9.40106 24.8326C9.49502 24.621 9.58651 24.4092 9.66973 24.196C10.7982 21.3418 11.0991 18.3028 10.8563 15.4414C11.0625 18.1258 10.7834 20.9133 9.83999 23.5402C9.68965 23.9596 9.51578 24.3721 9.33013 24.7822C9.13436 24.6423 8.93725 24.5024 8.74644 24.3606C8.73436 24.3525 8.72228 24.3428 8.71072 24.333C9.23359 23.1665 9.61283 21.9499 9.85547 20.7204C10.4666 17.636 10.2366 14.5264 9.545 11.6851C9.34985 10.8847 9.11217 10.1088 8.8433 9.35239C8.86839 9.34823 8.89265 9.34126 8.91774 9.33709L9.11774 9.29589L9.32022 9.28308L9.72321 9.25218C9.99414 9.24427 10.2754 9.26852 10.5513 9.27944C11.1031 9.3577 11.6601 9.45625 12.1964 9.66573C13.2721 10.0559 14.3076 10.6833 15.1697 11.5227C16.0351 12.3537 16.75 13.3558 17.2436 14.4393C17.3614 14.6784 17.4373 14.9429 17.5479 15.2087C17.6299 15.482 17.7076 15.7669 17.7806 16.06C17.8881 16.6495 17.9836 17.2927 17.9581 17.9656C17.9369 19.3071 17.5975 20.7409 17.0321 22.0024C16.4828 23.2784 15.7071 24.3563 15.0141 25.2134C14.3166 26.075 13.6653 26.6828 13.3906 27.2087C14.113 26.8778 14.8089 26.3996 15.4355 25.8545C16.0565 25.3026 16.5962 24.6821 17.1042 24.1061C16.9737 24.3702 16.8235 24.6576 16.6535 24.9493C16.4654 25.2235 16.2858 25.5374 16.0408 25.7945C16.2985 25.5776 16.5338 25.3073 16.7827 25.0608C16.9803 24.8268 17.1745 24.5928 17.3254 24.3543C17.0821 24.774 16.8383 25.1899 16.7901 25.4072C17.3955 24.8258 17.9391 23.7544 18.1685 23.1523C18.2099 23.0692 18.2729 22.8989 18.3378 22.6844C18.4029 22.4684 18.5009 22.2215 18.5613 21.9571C18.7128 21.4408 18.8142 20.907 18.9161 20.6886C18.8417 21.3171 18.7093 22.041 18.4865 22.7145C18.2855 23.4015 18.015 24.0407 17.8155 24.5718C17.9509 24.3842 18.0849 24.1989 18.2171 24.0133C18.3408 23.8209 18.4562 23.6274 18.5866 23.443C18.4207 23.9918 17.8161 24.9171 17.7368 25.2308C18.4695 24.3025 18.9458 23.3647 19.4418 22.2608C19.8449 21.3638 20.1237 20.5063 20.2165 19.5636C20.204 19.7045 20.1925 19.8526 20.1809 20.0034C20.1608 20.1531 20.1323 20.3062 20.1078 20.4629C20.081 20.6173 20.0548 20.776 20.0283 20.9321C19.9915 21.0886 19.9552 21.2423 19.9203 21.3955C19.8835 21.5487 19.8503 21.6987 19.8152 21.8456C19.7768 21.9888 19.7383 22.1289 19.7012 22.262C19.6374 22.5334 19.5792 22.7757 19.5307 22.978C19.6835 22.7551 19.7911 22.4996 19.8971 22.2411C20.0078 21.987 20.0882 21.7171 20.1624 21.449C20.1621 21.521 20.1713 21.566 20.1917 21.589C20.2645 21.3526 20.4144 21.0577 20.4623 20.8017C20.4788 20.8033 20.4987 20.7964 20.515 20.7922C20.5105 20.789 20.5052 20.786 20.5001 20.7842L20.5922 20.5958C22.83 12.9374 15.8028 4.02943 7.57733 6.35394ZM18.2498 42.3151C18.7594 41.2123 19.0725 40.0086 19.17 38.7712C19.2681 37.5368 19.1637 36.255 18.7834 35.0314C19.8248 37.8398 19.4969 41.1126 17.9887 43.7506C17.6172 44.416 17.1487 45.0228 16.6392 45.5893C16.1178 46.1473 15.5181 46.6299 14.881 47.0475C14.235 47.4543 13.5373 47.771 12.8202 48.02C12.0976 48.2573 11.3475 48.4029 10.5933 48.4814C9.08067 48.6135 7.53571 48.4145 6.12663 47.8586C4.71714 47.3064 3.46056 46.3884 2.52159 45.2059C0.623095 42.8636 -0.132606 39.5897 0.661401 36.7392C1.07234 35.3087 1.80327 33.982 2.69702 32.7479C3.57745 31.5071 4.60429 30.3429 5.59127 29.1242C5.91156 28.7262 6.23061 28.3257 6.54201 27.9128C6.80551 27.5636 7.06385 27.2075 7.3098 26.8415L7.93974 27.2939C7.60479 27.7976 7.25621 28.2794 6.89948 28.7468C6.46127 29.3246 6.0113 29.8792 5.56969 30.4202C3.96072 32.3935 2.41596 34.265 1.68494 36.3428C1.6108 36.6044 1.49661 36.8631 1.44932 37.1222L1.35619 37.5119L1.29496 37.9087C1.20843 38.4388 1.19842 38.9837 1.2202 39.5278C1.29021 40.6161 1.53987 41.7119 1.99366 42.7214C2.45097 43.7254 3.06955 44.6656 3.85716 45.4295C4.64456 46.1882 5.57671 46.7981 6.62193 47.1892C7.66746 47.5786 8.79818 47.7834 9.93818 47.7785C11.076 47.7635 12.2216 47.5538 13.3009 47.1411C14.3752 46.7151 15.3703 46.0779 16.2162 45.2514C17.0657 44.4276 17.7418 43.4143 18.2498 42.3151ZM11.532 29.8133C13.45 31.2293 15.1781 32.8207 16.2009 34.7141C16.3174 34.9549 16.4422 35.1901 16.5438 35.4345C16.6308 35.6824 16.7521 35.9241 16.8108 36.1709L16.9185 36.5391C16.9494 36.6642 16.9686 36.7928 16.9945 36.9181C17.0547 37.1665 17.0721 37.4261 17.1041 37.6816C17.203 38.7085 17.058 39.7631 16.7535 40.7502C16.3897 41.8966 15.7769 42.9894 14.9682 43.8605C14.557 44.2888 14.1182 44.6769 13.6232 44.9863C13.1247 45.2959 12.589 45.5524 12.0231 45.749C10.8828 46.1195 9.63947 46.2492 8.45775 46.0924C7.86633 46.0269 7.29473 45.875 6.75885 45.6755C6.4844 45.5861 6.23732 45.4524 5.97878 45.3392C5.74151 45.195 5.49133 45.0734 5.27171 44.9054C4.92933 44.688 4.59035 44.3689 4.23516 44.008C3.90104 43.6245 3.56443 43.1809 3.27585 42.6729C2.99355 42.1574 2.75215 41.5915 2.5728 40.9933C2.39707 40.3955 2.30373 39.7675 2.2741 39.1527C2.24209 38.5347 2.28907 37.9271 2.41452 37.3659C2.43476 37.2249 2.47347 37.08 2.51818 36.9361C2.56155 36.7909 2.5917 36.6479 2.63878 36.5063C2.74699 36.2237 2.82557 35.9419 2.95453 35.6695C3.41121 34.5785 4.00728 33.5779 4.43691 32.7703C3.75081 33.7626 3.13718 34.7421 2.6933 35.7235C2.57559 35.9694 2.49578 36.2173 2.38974 36.4612C2.3185 36.7109 2.22288 36.9596 2.16527 37.2037C2.11044 37.4465 2.04395 37.6877 2.01669 37.9395C1.96868 38.1853 1.95752 38.4404 1.93842 38.6957C1.88071 39.7161 2.04446 40.7719 2.36537 41.7706C2.7094 42.7623 3.21317 43.7015 3.8712 44.4815C2.30786 42.8814 1.40874 40.4723 1.58819 38.1836C1.6932 37.0598 2.03796 35.9293 2.63382 34.8314C3.21658 33.7325 3.98581 32.6612 4.83671 31.5779C5.519 30.7013 6.24765 29.8188 6.95306 28.8746C7.12446 28.6476 7.2939 28.4162 7.45972 28.181C7.65012 27.9103 7.83876 27.633 8.02182 27.3521C8.19209 27.471 8.36276 27.5913 8.53302 27.7083C9.56059 28.4132 10.571 29.0983 11.532 29.8133ZM10.0037 15.5661C10.1871 18.4369 9.79063 21.4666 8.54717 24.2095C7.62182 23.5157 6.74047 22.7924 5.9541 22.0202C2.54885 18.6862 1.42051 14.1465 5.84537 10.7071C6.72054 10.0444 7.71888 9.583 8.72827 9.37664C9.4085 11.3316 9.869 13.4101 10.0037 15.5661Z" fill="white"/>
</svg>
